<?xml version="1.0" encoding="utf-8"?>
<!-- Generator: Adobe Illustrator 27.5.0, SVG Export Plug-In . SVG Version: 6.00 Build 0)  -->
<svg version="1.1" xmlns="http://www.w3.org/2000/svg" xmlns:xlink="http://www.w3.org/1999/xlink" x="0px" y="0px"
	 viewBox="0 0 500 500" style="enable-background:new 0 0 500 500;" xml:space="preserve">
<g id="BACKGROUND">
	<rect x="0" style="fill:#FCFBFA;" width="500" height="500"/>
</g>
<g id="OBJECTS">
	
		<line style="fill:none;stroke:#FFD673;stroke-width:6;stroke-linecap:round;stroke-linejoin:round;stroke-miterlimit:10;" x1="436.333" y1="34.667" x2="291.667" y2="179.333"/>
	
		<line style="fill:none;stroke:#FFD673;stroke-width:4;stroke-linecap:round;stroke-linejoin:round;stroke-miterlimit:10;" x1="432.333" y1="78" x2="287.667" y2="222.667"/>
	
		<line style="fill:none;stroke:#CD63AF;stroke-width:2;stroke-linecap:round;stroke-linejoin:round;stroke-miterlimit:10;" x1="482.333" y1="112" x2="337.667" y2="256.667"/>
	
		<line style="fill:none;stroke:#CD63AF;stroke-width:2;stroke-linecap:round;stroke-linejoin:round;stroke-miterlimit:10;" x1="289.667" y1="299.333" x2="145" y2="444"/>
	
		<line style="fill:none;stroke:#FFD673;stroke-width:6;stroke-linecap:round;stroke-linejoin:round;stroke-miterlimit:10;" x1="299.667" y1="317.333" x2="184.667" y2="432.333"/>
	
		<line style="fill:none;stroke:#FFD673;stroke-width:6;stroke-linecap:round;stroke-linejoin:round;stroke-miterlimit:10;" x1="107" y1="221.333" x2="16.333" y2="312"/>
	
		<line style="fill:none;stroke:#FFD673;stroke-width:4;stroke-linecap:round;stroke-linejoin:round;stroke-miterlimit:10;" x1="120" y1="181.333" x2="29.333" y2="272"/>
	<g>
		<path style="fill:#C9EAE7;stroke:#694AB3;stroke-width:2;stroke-miterlimit:10;" d="M400.204,425.974l-60.027-29.711
			c-3.63-1.797-5.116-6.196-3.319-9.825l50.756-102.545c1.797-3.63,6.196-5.116,9.825-3.319l60.027,29.711
			c3.63,1.797,5.116,6.195,3.319,9.825l-50.756,102.545C408.232,426.284,403.833,427.771,400.204,425.974z"/>
		<path style="fill:#FCFBFA;stroke:#694AB3;stroke-width:2;stroke-miterlimit:10;" d="M403.134,415.883l-56.711-28.07
			c-1.815-0.898-2.558-3.098-1.66-4.913l47.035-95.027c0.898-1.815,3.098-2.558,4.913-1.66l56.711,28.07
			c1.815,0.898,2.558,3.098,1.66,4.913l-47.035,95.027C407.149,416.039,404.949,416.782,403.134,415.883z"/>
	</g>
	<g>
		<g>
			
				<ellipse transform="matrix(0.2921 -0.9564 0.9564 0.2921 80.9319 507.2825)" style="fill:#FFD673;stroke:#694AB3;stroke-linecap:round;stroke-linejoin:round;stroke-miterlimit:10;" cx="383.157" cy="198.968" rx="31.49" ry="31.49"/>
			
				<ellipse transform="matrix(0.7443 -0.6679 0.6679 0.7443 -23.0478 337.7439)" style="fill:#C9EAE7;" cx="429.51" cy="198.968" rx="31.49" ry="31.49"/>
			
				<ellipse transform="matrix(0.6699 -0.7424 0.7424 0.6699 -38.706 379.3961)" style="fill:#DFB1CD;" cx="407.341" cy="233.229" rx="31.49" ry="31.49"/>
		</g>
		<path style="fill:#FFFFFF;" d="M413.592,203.122c-2.019-0.419-4.109-0.642-6.251-0.642c-2.839,0-5.578,0.418-8.19,1.141
			c0.898,5.874,3.448,11.201,7.182,15.491C410.174,214.701,412.766,209.194,413.592,203.122z"/>
		<g>
			
				<ellipse transform="matrix(0.2921 -0.9564 0.9564 0.2921 80.9319 507.2825)" style="fill:none;stroke:#694AB3;stroke-width:2;stroke-miterlimit:10;" cx="383.157" cy="198.968" rx="31.49" ry="31.49"/>
			
				<ellipse transform="matrix(0.7443 -0.6679 0.6679 0.7443 -23.0478 337.7439)" style="fill:none;stroke:#694AB3;stroke-width:2;stroke-miterlimit:10;" cx="429.51" cy="198.968" rx="31.49" ry="31.49"/>
			
				<ellipse transform="matrix(0.6699 -0.7424 0.7424 0.6699 -38.706 379.3961)" style="fill:none;stroke:#694AB3;stroke-width:2;stroke-miterlimit:10;" cx="407.341" cy="233.229" rx="31.49" ry="31.49"/>
		</g>
	</g>
	<g>
		<rect x="230.835" y="301.435" style="fill:#C9EAE7;" width="36.647" height="43.72"/>
		<path style="fill:#ABD1CB;" d="M230.835,313.249c0,2.062,36.557,18.279,36.557,18.279v-19.645L230.835,313.249z"/>
		
			<rect x="230.835" y="301.435" style="fill:none;stroke:#694AB3;stroke-width:2;stroke-miterlimit:10;" width="36.647" height="43.72"/>
		<path style="fill:#C9EAE7;stroke:#694AB3;stroke-width:2;stroke-miterlimit:10;" d="M363.152,311.883H136.848
			c-4.51,0-8.165-3.656-8.165-8.165V150.795c0-4.51,3.656-8.165,8.165-8.165h226.304c4.51,0,8.165,3.656,8.165,8.165v152.923
			C371.318,308.227,367.662,311.883,363.152,311.883z"/>
		<path style="fill:#8B8BFA;stroke:#694AB3;stroke-miterlimit:10;" d="M357.985,289.702H142.015c-2.485,0-4.5-2.015-4.5-4.5v-128.91
			c0-2.485,2.015-4.5,4.5-4.5h215.971c2.485,0,4.5,2.015,4.5,4.5v128.91C362.485,287.687,360.471,289.702,357.985,289.702z"/>
		<path style="fill:#C9EAE7;stroke:#694AB3;stroke-width:2;stroke-miterlimit:10;" d="M368.858,345.155H131.142
			c-1.359,0-2.46,1.101-2.46,2.46v7.296c0,1.359,1.101,2.46,2.46,2.46h237.715c1.359,0,2.46-1.101,2.46-2.46v-7.296
			C371.318,346.256,370.216,345.155,368.858,345.155z"/>
	</g>
	<g>
		<g>
			<rect x="99.035" y="106.702" style="fill:#FCFBFA;" width="54.965" height="54.965"/>
			<g>
				<polyline style="fill:none;stroke:#694AB3;stroke-width:2;stroke-miterlimit:10;" points="154,160.667 154,161.667 153,161.667 
									"/>
				
					<line style="fill:none;stroke:#694AB3;stroke-width:2;stroke-miterlimit:10;stroke-dasharray:1.9617,1.9617;" x1="151.038" y1="161.667" x2="101.016" y2="161.667"/>
				<polyline style="fill:none;stroke:#694AB3;stroke-width:2;stroke-miterlimit:10;" points="100.035,161.667 99.035,161.667 
					99.035,160.667 				"/>
				
					<line style="fill:none;stroke:#694AB3;stroke-width:2;stroke-miterlimit:10;stroke-dasharray:1.9617,1.9617;" x1="99.035" y1="158.705" x2="99.035" y2="108.683"/>
				<polyline style="fill:none;stroke:#694AB3;stroke-width:2;stroke-miterlimit:10;" points="99.035,107.702 99.035,106.702 
					100.035,106.702 				"/>
				
					<line style="fill:none;stroke:#694AB3;stroke-width:2;stroke-miterlimit:10;stroke-dasharray:1.9617,1.9617;" x1="101.997" y1="106.702" x2="152.019" y2="106.702"/>
				<polyline style="fill:none;stroke:#694AB3;stroke-width:2;stroke-miterlimit:10;" points="153,106.702 154,106.702 154,107.702 
									"/>
				
					<line style="fill:none;stroke:#694AB3;stroke-width:2;stroke-miterlimit:10;stroke-dasharray:1.9617,1.9617;" x1="154" y1="109.664" x2="154" y2="159.686"/>
			</g>
		</g>
		<text transform="matrix(1 0 0 1 115.8628 147.3799)" style="fill:#DE5CB4; font-family:'Quicksand-Bold'; font-size:34.9544px;">T</text>
		
			<polygon style="fill:#C9EAE7;stroke:#694AB3;stroke-width:2;stroke-linecap:round;stroke-linejoin:round;stroke-miterlimit:10;" points="
			98.646,100.333 101.545,105.621 104.443,110.909 98.646,109.081 92.849,110.909 95.748,105.621 		"/>
	</g>
	<g>
		<g>
			<path style="fill:#FCFBFA;" d="M78.507,310.752l100.056,61.944c0.724,0.448,0.947,1.398,0.499,2.122l-15.165,24.495
				c-0.448,0.724-1.398,0.947-2.122,0.499L61.72,337.869c-0.724-0.448-0.947-1.398-0.499-2.122l15.165-24.495
				C76.834,310.528,77.784,310.304,78.507,310.752z"/>
			<g>
				
					<rect x="147.456" y="360.977" transform="matrix(-0.8502 -0.5264 0.5264 -0.8502 88.5628 779.0419)" style="fill:#D69D45;" width="15.282" height="31.893"/>
				
					<text transform="matrix(0.5264 -0.8503 0.8503 0.5264 161.1524 395.5169)" style="fill:#DE5CB4; font-family:'Quicksand-Bold'; font-size:5.3641px;">8364U</text>
			</g>
			<g>
				
					<rect x="125.847" y="347.599" transform="matrix(-0.8502 -0.5264 0.5264 -0.8502 55.6218 742.9149)" style="fill:#E1B15D;" width="15.282" height="31.893"/>
				
					<text transform="matrix(0.5264 -0.8503 0.8503 0.5264 139.5449 382.1397)" style="fill:#DE5CB4; font-family:'Quicksand-Bold'; font-size:5.3641px;">8363U</text>
			</g>
			<g>
				
					<rect x="103.815" y="333.959" transform="matrix(-0.8502 -0.5264 0.5264 -0.8502 22.0362 706.0796)" style="fill:#E3BE74;" width="15.282" height="31.893"/>
				
					<text transform="matrix(0.5264 -0.8503 0.8503 0.5264 117.5123 368.4993)" style="fill:#DE5CB4; font-family:'Quicksand-Bold'; font-size:5.3641px;">8362U</text>
			</g>
			<g>
				
					<rect x="81.782" y="320.318" transform="matrix(-0.8502 -0.5264 0.5264 -0.8502 -11.5484 669.2446)" style="fill:#FFD673;" width="15.282" height="31.893"/>
				
					<text transform="matrix(0.5264 -0.8503 0.8503 0.5264 95.478 354.8579)" style="fill:#DE5CB4; font-family:'Quicksand-Bold'; font-size:5.3641px;">8383U</text>
			</g>
			<path style="fill:none;stroke:#694AB3;stroke-width:2;stroke-linecap:round;stroke-linejoin:round;stroke-miterlimit:10;" d="
				M78.307,310.628l100.458,62.193c0.613,0.38,0.802,1.184,0.109,3.514l-15.414,24.898c-0.066-1.104-0.871-0.915-1.484-1.294
				L61.519,337.745c-0.613-0.379-0.802-1.184-0.423-1.797L76.51,311.05C76.889,310.438,77.694,310.248,78.307,310.628z"/>
		</g>
		<g>
			<path style="fill:#FCFBFA;" d="M87.653,311.537l53.931,105.274c0.312,0.609,0.071,1.355-0.538,1.667l-26.18,13.412
				c-0.609,0.312-1.355,0.071-1.667-0.538L59.268,326.078c-0.312-0.609-0.071-1.355,0.538-1.667l26.18-13.412
				C86.595,310.687,87.341,310.928,87.653,311.537z"/>
			<g>
				
					<rect x="111.53" y="392.088" transform="matrix(-0.4559 -0.89 0.89 -0.4559 -189.6491 700.1382)" style="fill:#CD63AF;" width="15.282" height="31.893"/>
				
					<text transform="matrix(0.89 -0.4559 0.4559 0.89 114.818 426.9215)" style="fill:#DE5CB4; font-family:'Quicksand-Bold'; font-size:5.3641px;">8374U</text>
			</g>
			<g>
				
					<rect x="99.942" y="369.469" transform="matrix(-0.4559 -0.89 0.89 -0.4559 -186.3888 656.8925)" style="fill:#D486BD;" width="15.282" height="31.893"/>
				
					<text transform="matrix(0.89 -0.4559 0.4559 0.89 103.2305 404.3051)" style="fill:#DE5CB4; font-family:'Quicksand-Bold'; font-size:5.3641px;">8373U</text>
			</g>
			<g>
				
					<rect x="88.127" y="346.406" transform="matrix(-0.4559 -0.89 0.89 -0.4559 -183.0652 612.7982)" style="fill:#DA9CC5;" width="15.282" height="31.893"/>
				
					<text transform="matrix(0.89 -0.4559 0.4559 0.89 91.4172 381.2403)" style="fill:#DE5CB4; font-family:'Quicksand-Bold'; font-size:5.3641px;">83723U</text>
			</g>
			<g>
				
					<rect x="76.312" y="323.343" transform="matrix(-0.4559 -0.89 0.89 -0.4559 -179.7386 568.7068)" style="fill:#DFB1CD;" width="15.282" height="31.893"/>
				
					<text transform="matrix(0.89 -0.4559 0.4559 0.89 79.6 358.1775)" style="fill:#DE5CB4; font-family:'Quicksand-Bold'; font-size:5.3641px;">8371U</text>
			</g>
			<path style="fill:none;stroke:#694AB3;stroke-width:2;stroke-linecap:round;stroke-linejoin:round;stroke-miterlimit:10;" d="
				M87.653,311.537l53.931,105.274c0.312,0.609,0.071,1.355-0.538,1.667l-26.18,13.412c-0.609,0.312-1.355,0.071-1.667-0.538
				L59.268,326.078c-0.312-0.609-0.071-1.355,0.538-1.667l26.18-13.412C86.595,310.687,87.341,310.928,87.653,311.537z"/>
		</g>
		<g>
			<g>
				<path style="fill:#FCFBFA;" d="M88.802,318.981l-1.134,118.279c-0.007,0.684-0.566,1.233-1.25,1.227l-29.414-0.282
					c-0.684-0.007-1.233-0.566-1.227-1.25l1.134-118.279c0.007-0.684,0.566-1.233,1.25-1.227l29.414,0.282
					C88.259,317.737,88.809,318.297,88.802,318.981z"/>
				<g>
					
						<rect x="64.254" y="403.131" transform="matrix(0.0096 -1 1 0.0096 -347.8517 486.9548)" style="fill:#8181FA;" width="15.282" height="31.893"/>
					
						<text transform="matrix(0.9999 0.0096 -0.0096 0.9999 59.0513 433.8112)" style="fill:#DE5CB4; font-family:'Quicksand-Bold'; font-size:5.364px;">8384U</text>
				</g>
				<g>
					
						<rect x="64.498" y="377.717" transform="matrix(0.0096 -1 1 0.0096 -322.198 462.0283)" style="fill:#9A9AFB;" width="15.282" height="31.893"/>
					
						<text transform="matrix(0.9999 0.0096 -0.0096 0.9999 59.2919 408.3964)" style="fill:#DE5CB4; font-family:'Quicksand-Bold'; font-size:5.364px;">8383U</text>
				</g>
				<g>
					
						<rect x="64.746" y="351.805" transform="matrix(0.0096 -1 1 0.0096 -296.0421 436.6082)" style="fill:#B6B6FC;" width="15.282" height="31.893"/>
					
						<text transform="matrix(0.9999 0.0096 -0.0096 0.9999 59.5404 382.4875)" style="fill:#DE5CB4; font-family:'Quicksand-Bold'; font-size:5.364px;">8382U</text>
				</g>
				<g>
					
						<rect x="64.995" y="325.894" transform="matrix(0.0096 -1 1 0.0096 -269.8845 411.1978)" style="fill:#D0D0FC;" width="15.282" height="31.893"/>
					
						<text transform="matrix(0.9999 0.0096 -0.0096 0.9999 59.7906 356.5758)" style="fill:#DE5CB4; font-family:'Quicksand-Bold'; font-size:5.364px;">8381U</text>
				</g>
				<path style="fill:none;stroke:#694AB3;stroke-width:2;stroke-linecap:round;stroke-linejoin:round;stroke-miterlimit:10;" d="
					M88.802,318.981l-1.134,118.279c-0.007,0.684-0.566,1.233-1.25,1.227l-29.414-0.282c-0.684-0.007-1.233-0.566-1.227-1.25
					l1.134-118.279c0.007-0.684,0.566-1.233,1.25-1.227l29.414,0.282C88.259,317.737,88.809,318.297,88.802,318.981z"/>
			</g>
			<path style="fill:none;stroke:#694AB3;stroke-miterlimit:10;" d="M69.227,323.877c0.724-1.17,2.26-1.531,3.43-0.807
				c1.17,0.724,1.531,2.26,0.807,3.43c-0.724,1.17-2.26,1.531-3.43,0.807C68.863,326.582,68.502,325.047,69.227,323.877z"/>
		</g>
	</g>
	<g>
		<path style="fill:none;stroke:#F8E9C9;stroke-linecap:round;stroke-linejoin:round;stroke-miterlimit:10;stroke-dasharray:2;" d="
			M203.833,277h-35.667c-4.51,0-8.167-3.656-8.167-8.167V212.5c0-4.51,3.656-8.167,8.167-8.167h35.667
			c4.51,0,8.167,3.656,8.167,8.167v56.333C212,273.344,208.344,277,203.833,277z"/>
		<path style="fill:none;stroke:#F8E9C9;stroke-linecap:round;stroke-linejoin:round;stroke-miterlimit:10;stroke-dasharray:2;" d="
			M267.833,277h-35.667c-4.51,0-8.167-3.656-8.167-8.167V212.5c0-4.51,3.656-8.167,8.167-8.167h35.667
			c4.51,0,8.167,3.656,8.167,8.167v56.333C276,273.344,272.344,277,267.833,277z"/>
		<path style="fill:none;stroke:#F8E9C9;stroke-linecap:round;stroke-linejoin:round;stroke-miterlimit:10;stroke-dasharray:2;" d="
			M338.5,192.333H162.167c-2.117,0-3.833-1.716-3.833-3.833v-18.333c0-2.117,1.716-3.833,3.833-3.833H338.5
			c2.117,0,3.833,1.716,3.833,3.833V188.5C342.333,190.617,340.617,192.333,338.5,192.333z"/>
		<path style="fill:none;stroke:#F8E9C9;stroke-linecap:round;stroke-linejoin:round;stroke-miterlimit:10;stroke-dasharray:2;" d="
			M330.833,277h-35.667c-4.51,0-8.167-3.656-8.167-8.167V212.5c0-4.51,3.656-8.167,8.167-8.167h35.667
			c4.51,0,8.167,3.656,8.167,8.167v56.333C339,273.344,335.344,277,330.833,277z"/>
	</g>
	<text transform="matrix(1 0 0 1 205.2844 63.8699)"><tspan x="0" y="0" style="fill:#322C4F; font-family:'Quicksand-Bold'; font-size:14px;">WEB </tspan><tspan x="36.246" y="0" style="fill:#322C4F; font-family:'Quicksand-Regular'; font-size:14px;">DESIGN</tspan></text>
	<g>
		
			<polygon style="fill:none;stroke:#CD63AF;stroke-width:2;stroke-linecap:round;stroke-linejoin:round;stroke-miterlimit:10;" points="
			45.82,77.915 49.076,83.868 55.029,87.124 49.076,90.38 45.82,96.333 42.564,90.38 36.611,87.124 42.564,83.868 		"/>
		
			<polygon style="fill:none;stroke:#CD63AF;stroke-width:2;stroke-linecap:round;stroke-linejoin:round;stroke-miterlimit:10;" points="
			66.285,39.667 69.541,45.62 75.494,48.876 69.541,52.132 66.285,58.085 63.029,52.132 57.076,48.876 63.029,45.62 		"/>
		<g>
			<g>
				
					<line style="fill:none;stroke:#CD63AF;stroke-width:2;stroke-linecap:round;stroke-linejoin:round;stroke-miterlimit:10;" x1="92.777" y1="74.608" x2="92.777" y2="88.846"/>
				
					<line style="fill:none;stroke:#CD63AF;stroke-width:2;stroke-linecap:round;stroke-linejoin:round;stroke-miterlimit:10;" x1="99.896" y1="81.727" x2="85.659" y2="81.727"/>
			</g>
			<g>
				
					<line style="fill:none;stroke:#CD63AF;stroke-width:2;stroke-linecap:round;stroke-linejoin:round;stroke-miterlimit:10;" x1="97.811" y1="76.693" x2="87.744" y2="86.761"/>
				
					<line style="fill:none;stroke:#CD63AF;stroke-width:2;stroke-linecap:round;stroke-linejoin:round;stroke-miterlimit:10;" x1="97.811" y1="86.761" x2="87.744" y2="76.693"/>
			</g>
		</g>
	</g>
	<g>
		
			<polygon style="fill:none;stroke:#CD63AF;stroke-width:2;stroke-linecap:round;stroke-linejoin:round;stroke-miterlimit:10;" points="
			463.854,415.227 460.974,409.961 455.708,407.081 460.974,404.201 463.854,398.935 466.734,404.201 472,407.081 466.734,409.961 
					"/>
		
			<polygon style="fill:none;stroke:#CD63AF;stroke-width:2;stroke-linecap:round;stroke-linejoin:round;stroke-miterlimit:10;" points="
			453.486,463.772 449.596,456.66 442.484,452.77 449.596,448.88 453.486,441.767 457.376,448.88 464.488,452.77 457.376,456.66 		
			"/>
		<g>
			<g>
				
					<line style="fill:none;stroke:#CD63AF;stroke-width:2;stroke-linecap:round;stroke-linejoin:round;stroke-miterlimit:10;" x1="438.357" y1="429.717" x2="438.357" y2="418.967"/>
				
					<line style="fill:none;stroke:#CD63AF;stroke-width:2;stroke-linecap:round;stroke-linejoin:round;stroke-miterlimit:10;" x1="432.982" y1="424.342" x2="443.732" y2="424.342"/>
			</g>
			<g>
				
					<line style="fill:none;stroke:#CD63AF;stroke-width:2;stroke-linecap:round;stroke-linejoin:round;stroke-miterlimit:10;" x1="434.557" y1="428.143" x2="442.158" y2="420.542"/>
				
					<line style="fill:none;stroke:#CD63AF;stroke-width:2;stroke-linecap:round;stroke-linejoin:round;stroke-miterlimit:10;" x1="434.557" y1="420.542" x2="442.158" y2="428.143"/>
			</g>
		</g>
	</g>
	<g>
		<g>
			<polygon style="fill:#FFD673;" points="440.16,296.725 424.216,300.94 408.053,332.392 412.456,337.063 445.527,323.248 
				450.668,307.874 			"/>
			<polygon style="fill:#8B8BFA;stroke:#694AB3;stroke-miterlimit:10;" points="442.901,285.747 437.248,293.636 453.722,311.114 
				461.646,305.636 			"/>
			
				<line style="fill:none;stroke:#694AB3;stroke-width:2;stroke-linecap:round;stroke-linejoin:round;stroke-miterlimit:10;" x1="410.539" y1="335.029" x2="425.455" y2="320.97"/>
			<path style="fill:none;stroke:#694AB3;stroke-width:2;stroke-linecap:round;stroke-linejoin:round;stroke-miterlimit:10;" d="
				M432.038,321.237c-1.893,1.784-4.874,1.696-6.658-0.197s-1.696-4.874,0.197-6.658c1.893-1.784,4.874-1.696,6.658,0.197
				S433.931,319.453,432.038,321.237z"/>
		</g>
		<g>
			
				<polygon style="fill:none;stroke:#694AB3;stroke-width:2;stroke-linecap:round;stroke-linejoin:round;stroke-miterlimit:10;" points="
				440.16,296.725 424.216,300.94 408.053,332.392 412.456,337.063 445.527,323.248 450.668,307.874 			"/>
			
				<polygon style="fill:none;stroke:#694AB3;stroke-width:2;stroke-linecap:round;stroke-linejoin:round;stroke-miterlimit:10;" points="
				442.901,285.747 437.248,293.636 453.722,311.114 461.646,305.636 			"/>
			
				<line style="fill:none;stroke:#694AB3;stroke-width:2;stroke-linecap:round;stroke-linejoin:round;stroke-miterlimit:10;" x1="410.539" y1="335.029" x2="425.455" y2="320.97"/>
			<path style="fill:none;stroke:#694AB3;stroke-width:2;stroke-linecap:round;stroke-linejoin:round;stroke-miterlimit:10;" d="
				M432.038,321.237c-1.893,1.784-4.874,1.696-6.658-0.197s-1.696-4.874,0.197-6.658c1.893-1.784,4.874-1.696,6.658,0.197
				S433.931,319.453,432.038,321.237z"/>
		</g>
		<g>
			
				<line style="fill:none;stroke:#694AB3;stroke-width:2;stroke-linecap:round;stroke-linejoin:round;stroke-miterlimit:10;" x1="401.559" y1="297.92" x2="401.559" y2="313"/>
			
				<line style="fill:none;stroke:#694AB3;stroke-width:2;stroke-linecap:round;stroke-linejoin:round;stroke-miterlimit:10;" x1="409.099" y1="305.46" x2="394.018" y2="305.46"/>
		</g>
	</g>
	
		<polygon style="fill:#C9EAE7;stroke:#694AB3;stroke-width:2;stroke-linecap:round;stroke-linejoin:round;stroke-miterlimit:10;" points="
		339.952,192.124 347,195.667 354.048,199.21 346.447,201.545 341.56,207.818 340.756,199.971 	"/>
	<g>
		<polygon style="fill:#FCFBFA;stroke:#694AB3;stroke-width:2;stroke-miterlimit:10;" points="181.861,237.384 176.694,246.904 
			184.445,268.799 188.661,268.799 196.957,246.768 191.925,237.384 		"/>
		<polygon style="fill:#8B8BFA;stroke:#694AB3;stroke-width:2;stroke-miterlimit:10;" points="177.85,231.129 179.074,237.384 
			194.849,237.384 195.801,231.129 		"/>
		
			<line style="fill:#FCFBFA;stroke:#694AB3;stroke-width:2;stroke-miterlimit:10;" x1="186.825" y1="268.799" x2="186.825" y2="255.335"/>
		<path style="fill:#FCFBFA;stroke:#694AB3;stroke-width:2;stroke-miterlimit:10;" d="M189.919,252.31
			c0,1.709-1.385,3.094-3.094,3.094c-1.709,0-3.094-1.385-3.094-3.094c0-1.709,1.385-3.094,3.094-3.094
			C188.534,249.216,189.919,250.601,189.919,252.31z"/>
		<path style="fill:none;stroke:#694AB3;stroke-width:2;stroke-miterlimit:10;" d="M164.029,255.335c0,0,1.258,22.167,22.796,22.167
			c21.538,0,23.306-22.167,23.306-22.167"/>
		<path style="fill:#FCFBFA;stroke:#694AB3;stroke-width:2;stroke-miterlimit:10;" d="M165.525,277.502
			c0.408,0.136,43.382,0,43.382,0"/>
		
			<rect x="161.581" y="275.87" style="fill:#FCFBFA;stroke:#694AB3;stroke-width:2;stroke-miterlimit:10;" width="3.944" height="3.944"/>
		
			<rect x="185.244" y="275.87" style="fill:#FCFBFA;stroke:#694AB3;stroke-width:2;stroke-miterlimit:10;" width="3.944" height="3.944"/>
		
			<rect x="209.723" y="275.87" style="fill:#FCFBFA;stroke:#694AB3;stroke-width:2;stroke-miterlimit:10;" width="3.944" height="3.944"/>
		
			<rect x="208.091" y="251.392" style="fill:#FCFBFA;stroke:#694AB3;stroke-width:2;stroke-miterlimit:10;" width="3.944" height="3.944"/>
		
			<rect x="161.581" y="251.392" style="fill:#FCFBFA;stroke:#694AB3;stroke-width:2;stroke-miterlimit:10;" width="3.944" height="3.944"/>
	</g>
</g>
<g id="DESIGNED_BY_FREEPIK">
	<g>
		<g id="XMLID_319_">
			<g id="XMLID_338_">
				<path id="XMLID_346_" style="fill:#252A30;" d="M260.104,467.453c-0.432,0.443-0.803,0.931-1.108,1.453l-0.465-0.241
					c-0.067-0.298-0.349-0.503-0.659-0.466c-0.331,0.039-0.568,0.339-0.529,0.67c0.039,0.331,0.339,0.568,0.67,0.529
					c0.066-0.008,0.127-0.026,0.184-0.052l0.451,0.234c-0.251,0.554-0.433,1.139-0.539,1.744l0.747,0.132
					c0.23-1.306,0.85-2.507,1.792-3.473L260.104,467.453z"/>
				<path id="XMLID_345_" style="fill:#252A30;" d="M265.592,465.151c-0.171,0-0.341,0.006-0.51,0.017l-0.074-0.626
					c0.188-0.149,0.296-0.389,0.266-0.645c-0.046-0.393-0.402-0.674-0.795-0.628c-0.393,0.046-0.674,0.402-0.628,0.795
					c0.03,0.254,0.189,0.461,0.404,0.564l0.074,0.624c-0.714,0.116-1.403,0.332-2.06,0.646l0.327,0.684
					c0.934-0.447,1.942-0.673,2.995-0.673c0.496,0,0.993,0.053,1.475,0.158l0.161-0.741
					C266.692,465.209,266.142,465.151,265.592,465.151z"/>
				<path id="XMLID_344_" style="fill:#252A30;" d="M272.194,467.698c0.331-0.041,0.566-0.342,0.526-0.672
					c-0.04-0.331-0.341-0.566-0.672-0.526c-0.309,0.038-0.535,0.304-0.53,0.609l-0.416,0.363c-0.418-0.43-0.889-0.813-1.408-1.139
					l-0.404,0.641c1.134,0.715,2.021,1.726,2.563,2.925l0.69-0.313c-0.251-0.554-0.567-1.072-0.942-1.545l0.402-0.351
					C272.065,467.703,272.129,467.706,272.194,467.698z"/>
				<path id="XMLID_343_" style="fill:#252A30;" d="M265.044,475.359c-0.386,0.023-0.775,0.035-1.157,0.035
					c-0.88,0-1.733-0.061-2.478-0.179c-0.39-0.062-0.846-0.155-1.27-0.292c1.046,1.861,3.069,3.125,5.388,3.125
					c2.855,0,5.262-1.916,5.95-4.504c-0.682,0.449-1.505,0.825-2.459,1.123C267.839,475.034,266.463,475.274,265.044,475.359z"/>
				<path id="XMLID_339_" style="fill:#252A30;" d="M265.592,466.667c-3.352,0-6.08,2.666-6.08,5.944
					c0,0.426,0.046,0.849,0.137,1.261c0.673,0.483,2.706,0.89,5.348,0.731c2.879-0.173,5.297-0.957,6.672-2.159
					c-0.006-0.195-0.021-0.39-0.045-0.582C271.244,468.9,268.65,466.667,265.592,466.667z M263.432,473.182
					c-1.02,0-1.85-0.83-1.85-1.85c0-1.02,0.83-1.85,1.85-1.85c1.02,0,1.85,0.83,1.85,1.85
					C265.282,472.352,264.452,473.182,263.432,473.182z M268.17,472.273c-0.75,0-1.36-0.61-1.36-1.36c0-0.75,0.61-1.36,1.36-1.36
					c0.75,0,1.361,0.61,1.361,1.36C269.53,471.663,268.92,472.273,268.17,472.273z"/>
			</g>
			<path id="XMLID_336_" style="fill:#252A30;" d="M281.595,468.534c-0.295-0.116-0.805-0.309-1.382-0.237
				c-0.551,0.069-0.844,0.34-0.844,1.007v0.866h2.228v1.717h-2.228v5.455h-1.932v-5.455h-1.34v-1.717h1.34v-0.888
				c0-1.68,0.896-2.783,2.568-2.783c0.643,0,1.157,0.122,1.59,0.308L281.595,468.534z"/>
			<path id="XMLID_334_" style="fill:#252A30;" d="M286.298,471.866c-0.177-0.03-0.358-0.046-0.526-0.046
				c-0.896,0-1.51,0.548-1.51,1.613v3.908h-1.932v-7.172h1.873v0.785c0.451-0.673,1.14-0.977,2.021-0.977
				c0.414,0,0.848,0.127,1.094,0.337L286.298,471.866z"/>
			<path id="XMLID_331_" style="fill:#252A30;" d="M293.965,473.744c0,0.222-0.015,0.489-0.037,0.651h-5.085
				c0.207,1.036,0.933,1.488,1.843,1.488c0.622,0,1.295-0.252,1.813-0.688l1.133,1.243c-0.814,0.748-1.85,1.088-3.057,1.088
				c-2.198,0-3.723-1.495-3.723-3.753c0-2.258,1.48-3.797,3.627-3.797C292.544,469.977,293.958,471.509,293.965,473.744z
				 M288.851,473.078h3.175c-0.177-0.918-0.733-1.436-1.562-1.436C289.554,471.642,289.021,472.19,288.851,473.078z"/>
			<path id="XMLID_328_" style="fill:#252A30;" d="M301.618,473.744c0,0.222-0.015,0.489-0.037,0.651h-5.085
				c0.207,1.036,0.933,1.488,1.843,1.488c0.622,0,1.295-0.252,1.814-0.688l1.132,1.243c-0.814,0.748-1.85,1.088-3.057,1.088
				c-2.198,0-3.723-1.495-3.723-3.753c0-2.258,1.48-3.797,3.627-3.797C300.197,469.977,301.611,471.509,301.618,473.744z
				 M296.504,473.078h3.175c-0.178-0.918-0.733-1.436-1.562-1.436C297.207,471.642,296.674,472.19,296.504,473.078z"/>
			<path id="XMLID_325_" style="fill:#252A30;" d="M309.964,473.751c0,2.154-1.495,3.775-3.471,3.775
				c-0.962,0-1.643-0.378-2.109-0.933v3.708h-1.924v-10.133h1.887v0.792c0.466-0.585,1.155-0.984,2.139-0.984
				C308.469,469.977,309.964,471.598,309.964,473.751z M304.287,473.751c0,1.132,0.748,1.976,1.843,1.976
				c1.14,0,1.85-0.881,1.85-1.976c0-1.095-0.71-1.976-1.85-1.976C305.035,471.775,304.287,472.619,304.287,473.751z"/>
			<path id="XMLID_322_" style="fill:#252A30;" d="M313.068,467.823c0,0.696-0.54,1.229-1.236,1.229
				c-0.696,0-1.229-0.533-1.229-1.229c0-0.696,0.533-1.243,1.229-1.243C312.527,466.579,313.068,467.127,313.068,467.823z
				 M312.809,477.341h-1.932v-7.172h1.932V477.341z"/>
			<path id="XMLID_320_" style="fill:#252A30;" d="M316.032,472.723l2.701-2.554h2.368l-3.479,3.375l3.501,3.797h-2.376
				l-2.716-2.901v2.901H314.1v-10.658h1.932V472.723z"/>
		</g>
		<g>
			<path style="fill:#252A30;" d="M184.412,477.276v-1.055c-0.527,0.718-1.391,1.23-2.387,1.23c-1.846,0-3.149-1.406-3.149-3.706
				c0-2.256,1.289-3.721,3.149-3.721c0.952,0,1.816,0.469,2.387,1.245v-3.765h1.099v9.77H184.412z M184.412,475.357v-3.208
				c-0.395-0.615-1.245-1.143-2.124-1.143c-1.421,0-2.27,1.172-2.27,2.739c0,1.567,0.85,2.724,2.27,2.724
				C183.168,476.47,184.017,475.973,184.412,475.357z"/>
			<path style="fill:#252A30;" d="M186.932,473.732c0-2.051,1.465-3.706,3.486-3.706c2.139,0,3.398,1.67,3.398,3.794v0.279h-5.727
				c0.088,1.333,1.025,2.446,2.549,2.446c0.805,0,1.626-0.322,2.182-0.893l0.527,0.718c-0.703,0.703-1.655,1.084-2.812,1.084
				C188.44,477.452,186.932,475.943,186.932,473.732z M190.403,470.934c-1.509,0-2.256,1.274-2.314,2.358h4.643
				C192.718,472.237,192.015,470.934,190.403,470.934z"/>
			<path style="fill:#252A30;" d="M194.607,476.339l0.571-0.791c0.469,0.542,1.362,1.011,2.329,1.011c1.084,0,1.67-0.513,1.67-1.216
				c0-1.714-4.38-0.659-4.38-3.281c0-1.098,0.952-2.036,2.636-2.036c1.201,0,2.051,0.454,2.622,1.025l-0.513,0.762
				c-0.424-0.513-1.201-0.894-2.109-0.894c-0.967,0-1.567,0.483-1.567,1.113c0,1.553,4.38,0.527,4.38,3.281
				c0,1.187-0.952,2.139-2.783,2.139C196.306,477.452,195.325,477.1,194.607,476.339z"/>
			<path style="fill:#252A30;" d="M201.477,468.458c0-0.41,0.337-0.747,0.732-0.747c0.41,0,0.747,0.337,0.747,0.747
				c0,0.41-0.337,0.732-0.747,0.732C201.814,469.19,201.477,468.868,201.477,468.458z M201.667,477.276v-7.075h1.099v7.075H201.667z
				"/>
			<path style="fill:#252A30;" d="M204.582,479.092l0.556-0.82c0.586,0.703,1.289,0.967,2.3,0.967c1.172,0,2.27-0.571,2.27-2.124
				v-1.011c-0.513,0.718-1.377,1.26-2.373,1.26c-1.845,0-3.149-1.377-3.149-3.662c0-2.27,1.289-3.676,3.149-3.676
				c0.952,0,1.802,0.469,2.373,1.245v-1.069h1.098v6.87c0,2.344-1.641,3.076-3.369,3.076
				C206.237,480.147,205.417,479.913,204.582,479.092z M209.709,475.24v-3.091c-0.381-0.615-1.23-1.143-2.109-1.143
				c-1.421,0-2.27,1.128-2.27,2.695c0,1.553,0.849,2.695,2.27,2.695C208.478,476.397,209.328,475.855,209.709,475.24z"/>
			<path style="fill:#252A30;" d="M217.413,477.276v-4.629c0-1.245-0.63-1.641-1.582-1.641c-0.865,0-1.685,0.527-2.095,1.099v5.17
				h-1.099v-7.075h1.099v1.025c0.498-0.586,1.464-1.201,2.519-1.201c1.48,0,2.256,0.747,2.256,2.285v4.966H217.413z"/>
			<path style="fill:#252A30;" d="M219.932,473.732c0-2.051,1.465-3.706,3.486-3.706c2.139,0,3.398,1.67,3.398,3.794v0.279h-5.727
				c0.088,1.333,1.025,2.446,2.549,2.446c0.806,0,1.626-0.322,2.183-0.893l0.527,0.718c-0.703,0.703-1.655,1.084-2.812,1.084
				C221.441,477.452,219.932,475.943,219.932,473.732z M223.404,470.934c-1.509,0-2.256,1.274-2.314,2.358h4.643
				C225.718,472.237,225.015,470.934,223.404,470.934z"/>
			<path style="fill:#252A30;" d="M233.35,477.276v-1.055c-0.527,0.718-1.392,1.23-2.388,1.23c-1.846,0-3.149-1.406-3.149-3.706
				c0-2.256,1.289-3.721,3.149-3.721c0.952,0,1.817,0.469,2.388,1.245v-3.765h1.098v9.77H233.35z M233.35,475.357v-3.208
				c-0.396-0.615-1.245-1.143-2.124-1.143c-1.421,0-2.27,1.172-2.27,2.739c0,1.567,0.849,2.724,2.27,2.724
				C232.105,476.47,232.954,475.973,233.35,475.357z"/>
			<path style="fill:#252A30;" d="M239.692,477.276v-9.77h1.098v3.765c0.572-0.776,1.421-1.245,2.388-1.245
				c1.845,0,3.149,1.465,3.149,3.721c0,2.299-1.304,3.706-3.149,3.706c-0.996,0-1.86-0.513-2.388-1.23v1.055H239.692z M242.9,476.47
				c1.436,0,2.285-1.157,2.285-2.724c0-1.567-0.85-2.739-2.285-2.739c-0.864,0-1.728,0.527-2.109,1.143v3.208
				C241.171,475.973,242.036,476.47,242.9,476.47z"/>
			<path style="fill:#252A30;" d="M247.528,479.049c0.161,0.073,0.425,0.117,0.601,0.117c0.483,0,0.805-0.161,1.055-0.747
				l0.469-1.069l-2.959-7.148h1.187l2.358,5.801l2.344-5.801h1.201l-3.545,8.51c-0.425,1.025-1.143,1.421-2.08,1.435
				c-0.234,0-0.601-0.044-0.805-0.103L247.528,479.049z"/>
		</g>
	</g>
</g>
</svg>
