<?xml version="1.0" encoding="utf-8"?>
<!-- Generator: Adobe Illustrator 27.5.0, SVG Export Plug-In . SVG Version: 6.00 Build 0)  -->
<svg version="1.1" xmlns="http://www.w3.org/2000/svg" xmlns:xlink="http://www.w3.org/1999/xlink" x="0px" y="0px"
	 viewBox="0 0 3710 3710" style="enable-background:new 0 0 3710 3710;" xml:space="preserve">
<g id="Background">
	<g>
		<g>
			<rect style="fill:#FFFFFF;" width="3710" height="3710"/>
		</g>
	</g>
</g>
<g id="Illustration">
	<g>
		<path style="fill:#F4F7FA;" d="M1095.54,555.198c-96.455,140.604,16.641,368.558-126.481,474.304
			c-139.318,102.936-310.466-65.79-441.764,22.817c-194.774,131.443-159.204,732.9,125.565,1106.598
			c85.64,112.384,157.197,156.111,188.89,283.211c68.053,272.917-171.119,435.266-125.604,570.246
			c102.481,303.927,1678.564,558.957,2310.959-354.443c295.354-426.596,339.545-1042.603,75.656-1510.464
			C2625.915,302.05,1311.967,239.708,1095.54,555.198z"/>
		<g>
			<g>
				<g>
					<defs>
						<path id="SVGID_1_" d="M1874.748,3107.609c-47.761-145.546-96.373-367.741-39.465-614.429
							c65.348-283.266,210.103-339.939,340.074-642.729c185.529-432.224-24.444-745.316,167.621-877.42
							c93.663-64.421,240.947-64.473,331.752,0.203c259.073,184.526,188.051,988.28-222.995,1301.925
							c-185.903,141.853-348.125,125.025-487.63,308.586C1840.833,2745.944,1850.5,2959.925,1874.748,3107.609z"/>
					</defs>
					
						<linearGradient id="SVGID_00000021114980510878851770000012940762819993135249_" gradientUnits="userSpaceOnUse" x1="1995.5052" y1="1056.0144" x2="2511.877" y2="2699.0137">
						<stop  offset="0.0036" style="stop-color:#E38DDD"/>
						<stop  offset="1" style="stop-color:#9571F6"/>
					</linearGradient>
					
						<use xlink:href="#SVGID_1_"  style="overflow:visible;fill:url(#SVGID_00000021114980510878851770000012940762819993135249_);"/>
					<clipPath id="SVGID_00000163060249241364165240000002154662187081178813_">
						<use xlink:href="#SVGID_1_"  style="overflow:visible;"/>
					</clipPath>
					<g style="clip-path:url(#SVGID_00000163060249241364165240000002154662187081178813_);">
						<path style="fill:#FFFFFF;" d="M1844.999,2741.249l-3.424-0.871c15.635-61.444,36.654-121.818,62.472-179.444
							c59.384-132.545,124.821-205.343,207.669-297.507c53.846-59.901,114.874-127.793,185.367-225.083
							c131.854-181.986,172.762-245.88,209.326-348.66c72.408-203.525,61.288-385.979,48.213-476.625
							c-18.541-128.591-61.69-250.965-128.241-363.724l3.047-1.798c66.785,113.158,110.084,235.968,128.694,365.018
							c13.12,90.968,24.281,274.073-48.384,478.313c-36.712,103.198-77.702,167.24-209.793,349.549
							c-70.6,97.443-131.696,165.409-185.601,225.375c-82.639,91.933-147.915,164.548-207.072,296.588
							C1881.536,2619.82,1860.586,2680,1844.999,2741.249z"/>
						<path style="fill:#FFFFFF;" d="M2546.299,1545.777l-0.051-2.909c-2.656-149.978-98.515-247.051-178.461-302.072
							c-86.75-59.705-173.949-84.166-174.821-84.406l0.94-3.407c0.875,0.242,88.647,24.863,175.884,84.901
							c80.104,55.131,176.046,152.15,179.926,301.95c13.813-8.051,81.274-49.592,141.955-126.025
							c62.383-78.577,130.163-211.2,98.803-396.775l3.486-0.59c31.586,186.924-36.732,320.517-99.609,399.672
							c-68.102,85.74-144.727,127.859-145.492,128.276L2546.299,1545.777z"/>
						<path style="fill:#FFFFFF;" d="M2522.803,2027.299c-15.336,0-29.812-0.758-43.2-1.981
							c-84.187-7.696-144.498-35.003-145.098-35.279l-1.348-0.618l0.377-1.436c38.606-147.21,5.102-255.674-29.802-320.742
							c-37.841-70.538-85.443-106.734-85.92-107.092l2.12-2.827c0.48,0.36,48.614,36.928,86.832,108.096
							c35.137,65.433,68.885,174.344,30.567,322.003c9.343,4.04,66.04,27.397,142.713,34.386
							c77.061,7.025,190.696-1.527,294.326-82.185l2.168,2.789C2689.976,2009.788,2596.519,2027.299,2522.803,2027.299z"/>
						<path style="fill:#FFFFFF;" d="M2349.465,2308.604c-44.898,0-81.792-6.243-110.324-14.012
							c-70.494-19.193-106.66-51.65-107.017-51.977l-0.937-0.853l0.508-1.16c65.285-149.55-25.788-394.2-26.714-396.655l3.307-1.249
							c0.93,2.46,92.023,247.171,27.163,398.122c6.083,5.136,41.351,33.178,104.845,50.422
							c64.404,17.491,171.853,27.133,317.994-26.261l1.215,3.321C2477.023,2298.437,2406.735,2308.604,2349.465,2308.604z"/>
					</g>
				</g>
			</g>
			<g>
				<g>
					<defs>
						<path id="SVGID_00000182514718134860904850000017972605377342048171_" d="M1726.692,2879.427
							c-16.164-97.77-25.455-250.462,54.128-387.014c138.839-238.228,391.905-159.204,634.135-414.431
							c195.369-205.85,133.8-365.842,350.283-502.647c36.236-22.899,227.699-148.912,370.08-73.012
							c80.234,42.769,109.304,130.571,114.76,147.054c82.478,249.118-171.269,639.147-502.002,817.535
							c-190.02,102.49-251.326,68.996-585.717,188.529C1965.868,2725.681,1818.337,2816.126,1726.692,2879.427z"/>
					</defs>
					
						<linearGradient id="SVGID_00000095297275564571731030000003362485113890938011_" gradientUnits="userSpaceOnUse" x1="3146.5322" y1="5164.9263" x2="3051.4917" y2="4745.6279">
						<stop  offset="0" style="stop-color:#AA80F9"/>
						<stop  offset="0.9964" style="stop-color:#6165D7"/>
					</linearGradient>
					
						<use xlink:href="#SVGID_00000182514718134860904850000017972605377342048171_"  style="overflow:visible;fill:url(#SVGID_00000095297275564571731030000003362485113890938011_);"/>
					<clipPath id="SVGID_00000085227376410711928290000015262465687852111017_">
						<use xlink:href="#SVGID_00000182514718134860904850000017972605377342048171_"  style="overflow:visible;"/>
					</clipPath>
					<g style="clip-path:url(#SVGID_00000085227376410711928290000015262465687852111017_);">
						<path style="fill:#FFFFFF;" d="M1698.105,2997.018l-3.462-0.72c48.65-233.683,140.927-390.688,274.267-466.649
							c65.272-37.184,117.241-43.066,172.261-49.293c59.175-6.696,120.367-13.621,201.137-62.465
							c78.498-47.468,106.643-93.176,142.274-151.044c32.046-52.047,71.931-116.819,161.45-203.099
							c78.461-75.625,135.597-111.016,186.006-142.241c54.608-33.828,97.74-60.546,147.685-125.992
							c81.573-106.895,124.206-243.959,126.718-407.387l3.534,0.055c-2.522,164.2-45.403,301.967-127.442,409.477
							c-50.34,65.965-93.718,92.833-148.635,126.852c-50.258,31.133-107.223,66.419-185.412,141.783
							c-89.2,85.968-128.951,150.531-160.894,202.408c-35.882,58.274-64.222,104.303-143.451,152.215
							c-81.435,49.244-143.019,56.212-202.571,62.952c-54.649,6.184-106.269,12.026-170.909,48.851
							C1838.24,2608.156,1746.539,2764.369,1698.105,2997.018z"/>
						<path style="fill:#FFFFFF;" d="M2831.382,1938.751c-6.742,0-13.522-0.101-20.401-0.31l-2.364-0.072l0.741-2.247
							c1.074-3.261,105.981-327.643-13.518-461.733l2.642-2.35c34.904,39.165,72.426,120.276,52.961,284.269
							c-10.543,88.833-33.638,164.799-38.009,178.667c177.672,4.812,309.924-62.455,389.623-119.864
							c86.788-62.513,131.816-127.164,132.262-127.809l2.91,2.004c-0.446,0.65-45.749,65.721-132.99,128.589
							C3127.802,1873.699,3001.087,1938.751,2831.382,1938.751z"/>
						<path style="fill:#FFFFFF;" d="M2844.43,2215.121c-27.404,0-52.882-1.422-76.004-3.647
							c-124.299-11.969-208.606-49.112-209.443-49.486l-1.386-0.619l0.401-1.465c46.72-169.141,5.503-409.794,5.085-412.204
							l3.479-0.611c0.422,2.412,41.529,242.453-4.749,412.269c11.425,4.84,92.02,37.549,207.086,48.609
							c114.157,10.981,286.583,2.266,459.701-101.521l1.819,3.033C3091.491,2192.768,2953.001,2215.121,2844.43,2215.121z"/>
						<path style="fill:#FFFFFF;" d="M2697.144,2609.705c-162.428,0-287.921-34.322-365.966-63.947
							c-88.918-33.749-137.206-68.896-137.683-69.248l-1.499-1.103l1.18-1.441c128.423-156.772,78.389-415.781,77.867-418.38
							l3.465-0.693c0.522,2.606,50.556,261.649-77.4,419.842c18.709,12.974,207.8,138.033,524.973,131.166l0.075,3.534
							C2713.729,2609.616,2705.381,2609.705,2697.144,2609.705z"/>
					</g>
				</g>
			</g>
			<g>
				
					<linearGradient id="SVGID_00000146459460358100914050000012685279890046553272_" gradientUnits="userSpaceOnUse" x1="321.8365" y1="1445.6506" x2="-1108.4595" y2="2620.5383" gradientTransform="matrix(0.9456 0.3251 -0.3251 0.9456 3271.104 1020.5929)">
					<stop  offset="0" style="stop-color:#FF9085"/>
					<stop  offset="1" style="stop-color:#FB6FBB"/>
				</linearGradient>
				<path style="fill:url(#SVGID_00000146459460358100914050000012685279890046553272_);" d="M1895.962,2862.317
					c54.374-39.078,143.372-95.638,263.08-138.076c212.921-75.483,310.497-30.951,400.634-120.966
					c93.303-93.176,32.869-184.95,144.575-289c9.393-8.748,129.335-117.583,237.843-77.056
					c75.909,28.352,105.465,114.58,119.334,155.038c53.823,157.023,22.528,396.284-144.991,514.299
					c-158.822,111.889-359.901,58.564-423.742,41.182c-111.998-30.496-138.541-74.148-252.4-101.754
					C2101.831,2812.413,1977.377,2837.282,1895.962,2862.317z"/>
			</g>
			<g>
				<defs>
					<path id="SVGID_00000116198930924166158770000013566468581279214480_" d="M1895.962,2862.317
						c54.374-39.078,143.372-95.638,263.08-138.076c212.921-75.483,310.497-30.951,400.634-120.966
						c93.303-93.176,32.869-184.95,144.575-289c9.393-8.748,129.335-117.583,237.843-77.056
						c75.909,28.352,105.465,114.58,119.334,155.038c53.823,157.023,22.528,396.284-144.991,514.299
						c-158.822,111.889-359.901,58.564-423.742,41.182c-111.998-30.496-138.541-74.148-252.4-101.754
						C2101.831,2812.413,1977.377,2837.282,1895.962,2862.317z"/>
				</defs>
				
					<linearGradient id="SVGID_00000177476559303961159820000018284919590069894813_" gradientUnits="userSpaceOnUse" x1="1895.9624" y1="2601.9692" x2="3085.533" y2="2601.9692">
					<stop  offset="0" style="stop-color:#FF9085"/>
					<stop  offset="1" style="stop-color:#FB6FBB"/>
				</linearGradient>
				
					<use xlink:href="#SVGID_00000116198930924166158770000013566468581279214480_"  style="overflow:visible;fill:url(#SVGID_00000177476559303961159820000018284919590069894813_);"/>
				<clipPath id="SVGID_00000124133541990166928000000006788537566772618940_">
					<use xlink:href="#SVGID_00000116198930924166158770000013566468581279214480_"  style="overflow:visible;"/>
				</clipPath>
				<g style="clip-path:url(#SVGID_00000124133541990166928000000006788537566772618940_);">
					<defs>
						<path id="SVGID_00000032627315691307834400000006493251556360424586_" d="M1851.284,2897.628l-2.086-2.851
							c132.454-96.921,261.804-142.583,384.401-135.722c53.61,3.002,91.231,14.934,127.613,26.472
							c45.485,14.426,88.445,28.052,159.714,25.077c128.265-5.357,237.708-48.88,308.17-122.552
							c109.13-114.104,133.281-305.515,61.522-487.644l3.287-1.297c72.264,183.408,47.828,376.288-62.256,491.384
							c-71.094,74.336-181.391,118.247-310.572,123.64c-71.942,3.002-115.145-10.715-160.935-25.239
							c-36.173-11.472-73.578-23.334-126.742-26.311C2111.606,2755.779,1983.059,2801.208,1851.284,2897.628z"/>
					</defs>
					<defs>
						<path id="SVGID_00000055706253936178981820000016980918476276796565_" d="M2881.729,2616.463l0.203-2.711
							c8.227-109.273-57.573-192.164-114.219-242.46c-61.498-54.604-125.737-83.638-126.378-83.924l1.441-3.229
							c0.649,0.29,65.382,29.548,127.284,84.51c56.77,50.403,122.631,133.254,115.591,242.607
							c23.931-9.271,207.587-85.264,219.626-235.522l3.52,0.281c-12.993,162.23-222.395,238.78-224.509,239.533L2881.729,2616.463z"
							/>
					</defs>
					<defs>
						<path id="SVGID_00000054257317689749722630000014062161103793815194_" d="M2841.301,2865.092
							c-31.497,0-59.339-3.191-83.044-7.735c-87.824-16.836-139.19-55.418-139.698-55.805l-1.372-1.046l1.012-1.396
							c63.978-88.208,53.342-184.879,33.154-250.444c-21.917-71.166-59.453-122.033-59.83-122.537l2.834-2.114
							c0.381,0.511,38.28,51.869,60.372,123.611c20.318,65.977,31.047,163.126-32.636,252.125
							c8.725,6.179,57.922,39.047,137.021,54.172c80.361,15.366,208.901,15.04,364.975-73.779l1.75,3.071
							C3014.725,2846.448,2917.398,2865.092,2841.301,2865.092z"/>
					</defs>
					<use xlink:href="#SVGID_00000032627315691307834400000006493251556360424586_"  style="overflow:visible;fill:#FFFFFF;"/>
					<use xlink:href="#SVGID_00000055706253936178981820000016980918476276796565_"  style="overflow:visible;fill:#FFFFFF;"/>
					<use xlink:href="#SVGID_00000054257317689749722630000014062161103793815194_"  style="overflow:visible;fill:#FFFFFF;"/>
					<clipPath id="SVGID_00000141442377829745393620000002111335926725456769_">
						<use xlink:href="#SVGID_00000032627315691307834400000006493251556360424586_"  style="overflow:visible;"/>
					</clipPath>
					
						<clipPath id="SVGID_00000139253736876097537080000016783105614080249013_" style="clip-path:url(#SVGID_00000141442377829745393620000002111335926725456769_);">
						<use xlink:href="#SVGID_00000055706253936178981820000016980918476276796565_"  style="overflow:visible;"/>
					</clipPath>
					
						<clipPath id="SVGID_00000165947273590779289620000014464219402535229616_" style="clip-path:url(#SVGID_00000139253736876097537080000016783105614080249013_);">
						<use xlink:href="#SVGID_00000054257317689749722630000014062161103793815194_"  style="overflow:visible;"/>
					</clipPath>
				</g>
			</g>
		</g>
		<g>
			<g>
				
					<linearGradient id="SVGID_00000082350090215854169910000001049584028383125924_" gradientUnits="userSpaceOnUse" x1="-749.0963" y1="2839.9612" x2="-605.2067" y2="2839.9612" gradientTransform="matrix(-1 0 0 1 230.2854 0)">
					<stop  offset="0" style="stop-color:#311944"/>
					<stop  offset="1" style="stop-color:#6B3976"/>
				</linearGradient>
				<path style="fill:url(#SVGID_00000082350090215854169910000001049584028383125924_);" d="M949.887,2839.918l-71.993-43.259
					h-32.49c0,0-11.069,41.199-9.813,43.259c14.475,23.721,81.877,41.768,123.937,43.259c6.983,0.248,16.727,0.285,19.245-4.776
					C983.037,2869.83,963.987,2851.85,949.887,2839.918z"/>
				
					<linearGradient id="SVGID_00000159463398540918303500000010231212460716282753_" gradientUnits="userSpaceOnUse" x1="-649.9528" y1="2831.7871" x2="-530.8646" y2="2474.5215" gradientTransform="matrix(-1 0 0 1 230.2854 0)">
					<stop  offset="0" style="stop-color:#FFC444"/>
					<stop  offset="0.9964" style="stop-color:#F36F56"/>
				</linearGradient>
				<path style="fill:url(#SVGID_00000159463398540918303500000010231212460716282753_);" d="M876.62,2749.455
					c-0.119,25.204,0.958,42.985,7.268,50.805c4.44,5.506-38.25,17.893-38.484-3.601c-0.154-14.149-2.378-38.416-4.639-45.542
					C852.717,2750.563,864.669,2750.01,876.62,2749.455z"/>
			</g>
			<g>
				
					<linearGradient id="SVGID_00000119115132665794628270000013530046046656142488_" gradientUnits="userSpaceOnUse" x1="-1230.4442" y1="2783.1865" x2="-1086.5547" y2="2783.1865" gradientTransform="matrix(-1 0 0 1 230.2854 0)">
					<stop  offset="0" style="stop-color:#311944"/>
					<stop  offset="1" style="stop-color:#6B3976"/>
				</linearGradient>
				<path style="fill:url(#SVGID_00000119115132665794628270000013530046046656142488_);" d="M1431.235,2783.143l-71.993-43.258
					h-32.49c0,0-11.069,41.2-9.813,43.258c14.475,23.721,81.877,41.768,123.937,43.26c6.983,0.248,16.728,0.284,19.245-4.777
					C1464.385,2813.055,1445.336,2795.075,1431.235,2783.143z"/>
				
					<linearGradient id="SVGID_00000090272171720237576370000017426454418088887226_" gradientUnits="userSpaceOnUse" x1="-1123.6339" y1="2780.5095" x2="-992.4905" y2="2387.0781" gradientTransform="matrix(-1 0 0 1 230.2854 0)">
					<stop  offset="0" style="stop-color:#FFC444"/>
					<stop  offset="0.9964" style="stop-color:#F36F56"/>
				</linearGradient>
				<path style="fill:url(#SVGID_00000090272171720237576370000017426454418088887226_);" d="M1337.374,2692.99
					c10.491,20.056,21.553,42.676,27.862,50.496c4.441,5.506-31.034,16.563-38.484-3.601c-6.04-16.348-22.972-38.107-25.233-45.234
					C1313.47,2694.097,1325.422,2693.544,1337.374,2692.99z"/>
			</g>
			
				<linearGradient id="SVGID_00000082349135372033697320000011203774879958486670_" gradientUnits="userSpaceOnUse" x1="1027.261" y1="1293.2144" x2="1345.6923" y2="2492.8821">
				<stop  offset="0" style="stop-color:#311944"/>
				<stop  offset="1" style="stop-color:#6B3976"/>
			</linearGradient>
			<path style="fill:url(#SVGID_00000082349135372033697320000011203774879958486670_);" d="M1322.563,1512.761
				c-27.858,185.25-46.053,415.655-29.621,678.823c12.137,194.381,40.687,366.972,74.054,513.439
				c-22.216,5.76-44.433,11.519-66.649,17.279c-27.659-6.406-66.866-20.273-93.8-54.306
				c-35.414-44.748-19.264-86.014-44.432-160.449c-24.028-71.062-52.738-74.834-81.458-135.765
				c-37.461-79.476-14.584-128.154-17.28-234.503c-4.561-179.906-73.914-193.852-96.27-417.169
				c-11.704-116.916-17.477-184.056,24.685-227.097C1050.832,1432.741,1180.646,1443.429,1322.563,1512.761z"/>
			
				<linearGradient id="SVGID_00000085237047738157825590000001453878807561030785_" gradientUnits="userSpaceOnUse" x1="635.0156" y1="2124.937" x2="1091.8846" y2="2124.937">
				<stop  offset="0" style="stop-color:#311944"/>
				<stop  offset="1" style="stop-color:#6B3976"/>
			</linearGradient>
			<path style="fill:url(#SVGID_00000085237047738157825590000001453878807561030785_);" d="M1169.519,1525.103
				c-76.09,177.061-155.166,403.826-207.35,673.887c-41.702,215.816-56.852,410.75-59.243,575.151c-24.685,0-49.368,0-74.053,0
				c-21.416-31.169-49.569-79.488-66.648-143.171c-17.029-63.496-6.316-79.864-17.28-180.198
				c-14.942-136.744-34.513-143.037-32.09-224.629c2.785-93.764,31.277-93.392,41.965-187.602
				c15.811-139.367-41.754-182.384-39.496-311.025c1.015-57.79,14.313-144.841,78.99-251.782
				C919.382,1492.189,1044.451,1508.647,1169.519,1525.103z"/>
			
				<linearGradient id="SVGID_00000048493710771102479860000016679592667716044464_" gradientUnits="userSpaceOnUse" x1="2261.7449" y1="1415.2834" x2="2125.98" y2="1879.3525">
				<stop  offset="0" style="stop-color:#FFC444"/>
				<stop  offset="0.9964" style="stop-color:#F36F56"/>
			</linearGradient>
			<path style="fill:url(#SVGID_00000048493710771102479860000016679592667716044464_);" d="M2142.104,1503.44l29.027,25.73
				c0,0,63.732-2.514,86.68,3.322c22.948,5.836,62.539,25.734,62.539,25.734s-9.895,14.615-23.933,9.078
				c-14.038-5.536-35.724-13.017-39.891-10.988c-4.167,2.03-13.978,28.46-47.397,32.878c-33.419,4.419-48.969-34.919-48.969-34.919
				l-31.642-26.863L2142.104,1503.44z"/>
			
				<linearGradient id="SVGID_00000020361651365112922760000006309986936436347545_" gradientUnits="userSpaceOnUse" x1="1330.5487" y1="1757.7408" x2="2133.5112" y2="1007.8045">
				<stop  offset="0" style="stop-color:#AA80F9"/>
				<stop  offset="0.9964" style="stop-color:#6165D7"/>
			</linearGradient>
			<path style="fill:url(#SVGID_00000020361651365112922760000006309986936436347545_);" d="M1809.465,825.914
				c11.762,1.444,34.809,8.554,87.012,105.526c72.497,134.67,72.364,211.282,111.081,294.363
				c28.906,62.028,86.228,142.07,212.119,213.366c-9.507,11.2-19.016,22.399-28.524,33.598
				c-51.047,4.081-131.436,4.273-223.785-23.419c-28.795-8.634-81.355-24.797-137.63-61.345
				c-42.021-27.291-171.213-111.193-190.597-251.066C1617.953,984.04,1735.573,816.844,1809.465,825.914z"/>
			
				<linearGradient id="SVGID_00000047740656846649939790000008149191798075313327_" gradientUnits="userSpaceOnUse" x1="993.2479" y1="1363.9191" x2="1778.2161" y2="630.789">
				<stop  offset="0" style="stop-color:#AA80F9"/>
				<stop  offset="0.9964" style="stop-color:#6165D7"/>
			</linearGradient>
			<path style="fill:url(#SVGID_00000047740656846649939790000008149191798075313327_);" d="M1146.686,653.739
				c75.722-24.26,134.994-17.538,240.674-5.554c154.231,17.49,253.101,68.618,338.795,112.932
				c84.22,43.552,106.523,68.131,118.486,96.269c27.895,65.618-6.092,137.302-27.771,181.431
				c-55.349,112.671-106.716,108.755-224.012,244.377c-103.19,119.314-154.786,178.972-188.837,266.593
				c-15.064,38.765-29.774,88.953-77.756,118.486c-46.578,28.669-99.459,22.457-129.594,18.513
				c-126.596-16.568-137.824-98.275-220.31-92.567c-65.73,4.548-79.986,57.912-192.539,75.905
				c-50.307,8.042-64.979,0.183-72.203-5.554c-27.391-21.751-24.201-73.746,1.851-179.58
				c40.053-162.713,75.751-215.464,109.229-344.349c34.768-133.847,7.991-122.081,37.027-198.093
				C869.486,917.003,949.442,716.933,1146.686,653.739z"/>
			
				<linearGradient id="SVGID_00000046301866833013338790000000956583167436757891_" gradientUnits="userSpaceOnUse" x1="1609.6505" y1="1056.4866" x2="1325.0243" y2="1397.3356">
				<stop  offset="0" style="stop-color:#444B8C"/>
				<stop  offset="0.9964" style="stop-color:#26264F"/>
			</linearGradient>
			<path style="fill:url(#SVGID_00000046301866833013338790000000956583167436757891_);" d="M1162.22,1328.323l266.871-292.908
				c6.441-8.506,17.06-12.751,27.59-11.03l305.632,49.959c13.096,2.141,19.13,17.514,10.987,27.991l-248.455,319.658
				c-6.662,8.571-17.58,12.666-28.236,10.587l-316.951-58.628C1158.755,1369.876,1149.363,1345.3,1162.22,1328.323z"/>
			
				<linearGradient id="SVGID_00000093146028068680777820000014431162864187928493_" gradientUnits="userSpaceOnUse" x1="1263.5726" y1="1123.2657" x2="1127.8081" y2="1587.3339">
				<stop  offset="0" style="stop-color:#FFC444"/>
				<stop  offset="0.9964" style="stop-color:#F36F56"/>
			</linearGradient>
			<path style="fill:url(#SVGID_00000093146028068680777820000014431162864187928493_);" d="M1151.006,1234.033l57.128-24.929
				c0,0,21.812-31.161,39.47-36.355c17.658-5.193,81.018,2.078,81.018,2.078s-6.232,24.929-18.696,29.083
				c-12.465,4.155-50.896,7.271-57.129,19.736c-6.232,12.464-29.083,21.812-37.393,17.658c-8.31-4.155-61.283,13.503-61.283,13.503
				L1151.006,1234.033z"/>
			
				<linearGradient id="SVGID_00000111154593537779725620000000765541971486080929_" gradientUnits="userSpaceOnUse" x1="993.2253" y1="1363.8953" x2="1778.1963" y2="630.7624">
				<stop  offset="0" style="stop-color:#AA80F9"/>
				<stop  offset="0.9964" style="stop-color:#6165D7"/>
			</linearGradient>
			<path style="opacity:0.3;fill:url(#SVGID_00000111154593537779725620000000765541971486080929_);" d="M1170.753,1620.138
				c-26.332-32.157-12.125-70.729-48.135-103.675c-58.655-53.666-164.809-13.962-170.324-33.324
				c-6.606-23.194,152.389-56.818,170.324-148.107c8.131-41.391-21.813-48.428-18.513-103.675
				c3.093-51.794,35.428-94.477,99.972-177.729c50.96-65.731,64.745-71.081,66.648-96.27
				c5.72-75.718-89.929-128.414-129.594-155.512c-48.507-33.14-99.205-50.317-146.523-58.184
				c-88.308,81.338-128.174,181.329-134.88,198.885c-29.036,76.012-2.259,64.246-37.027,198.093
				c-33.478,128.885-69.175,181.635-109.229,344.349c-26.052,105.834-29.243,157.829-1.851,179.58
				c7.223,5.737,21.896,13.596,72.203,5.554c112.553-17.993,126.809-71.357,192.539-75.905
				c82.486-5.708,93.713,75.999,220.31,92.567c30.135,3.944,83.016,10.156,129.594-18.513c10.486-6.455,19.308-13.937,26.968-22.03
				C1241.294,1666.811,1192.841,1647.111,1170.753,1620.138z"/>
			<g>
				
					<linearGradient id="SVGID_00000181049414877944016540000011617894228464811916_" gradientUnits="userSpaceOnUse" x1="1148.2911" y1="-397.4164" x2="1166.4069" y2="-879.9594" gradientTransform="matrix(0.6867 0.7269 -0.7269 0.6867 357.5153 286.0352)">
					<stop  offset="0" style="stop-color:#FFC444"/>
					<stop  offset="0.9964" style="stop-color:#F36F56"/>
				</linearGradient>
				<path style="fill:url(#SVGID_00000181049414877944016540000011617894228464811916_);" d="M1687.894,573.515
					c-16.915,40.639-80.224,143.17-217.065,92.929c-36.624-13.447-42.873-8.714-44.993-5.892
					c-10.331,13.77,63.033,105.324,166.836,133.229c63.32,17.02,131.036,8.487,134.638-9.144
					c3.625-17.746-41.621-16.126-46.822-53.141c-3.619-25.765,48.486-56.638,75.288-74.054
					C1751.403,623.764,1692.292,607.265,1687.894,573.515z"/>
				<g>
					
						<linearGradient id="SVGID_00000171713629222916207880000000954217884519096744_" gradientUnits="userSpaceOnUse" x1="868.8544" y1="-233.837" x2="753.1991" y2="-527.5802" gradientTransform="matrix(-0.8439 -0.5366 -0.5366 0.8439 2148.009 1404.9562)">
						<stop  offset="0" style="stop-color:#311944"/>
						<stop  offset="1" style="stop-color:#6B3976"/>
					</linearGradient>
					<path style="fill:url(#SVGID_00000171713629222916207880000000954217884519096744_);" d="M1801.721,653.844
						c23.445-7.695,42.449-34.235,38.971-60.295c-2.996-22.434-21.889-36.718-33.205-45.281
						c-32.83-24.832-86.332-38.421-121.515-18.645c-20.866,11.731-25.119,59.516-26.345,67.828
						c-1.383,9.403,3.341,15.732,5.554,24.782c3.061,12.549,7.727,32.373,15.009,65.199c5.672-5.025,13.154-10.968,22.515-16.665
						c3.601-2.19,17.833-10.648,33.784-15.18C1768.429,646.508,1779.479,661.144,1801.721,653.844z"/>
					
						<linearGradient id="SVGID_00000103944706731768355350000000371870826677199283_" gradientUnits="userSpaceOnUse" x1="767.0423" y1="-450.5727" x2="761.8682" y2="-33.6997" gradientTransform="matrix(0.8751 0.4839 -0.4839 0.8751 848.9599 639.0932)">
						<stop  offset="0" style="stop-color:#FFC444"/>
						<stop  offset="0.9964" style="stop-color:#F36F56"/>
					</linearGradient>
					<path style="fill:url(#SVGID_00000103944706731768355350000000371870826677199283_);" d="M1661.773,652.498
						c0,0,0.28,48.002,48.429,72.885c43.026,22.234,104.968-57.122,90.449-90.496c-4.85-11.14-20.849-24.139-37.627-29.133
						c-9.918-2.951-14.917-1.519-31.043-6.632c-14.889-4.716-17.665-8.167-23.524-7.57c-7.332,0.748-16.944,7.582-25.209,36.733
						c-3.092-11.889-10.747-20.317-19.404-21.502c-1.383-0.188-5.403-0.16-8.781,1.505
						C1642.842,614.319,1644.38,632.255,1661.773,652.498z"/>
				</g>
			</g>
			
				<linearGradient id="SVGID_00000042015134202360663070000003968932053187864251_" gradientUnits="userSpaceOnUse" x1="833.1485" y1="1192.5002" x2="1618.1177" y2="459.3692">
				<stop  offset="0" style="stop-color:#AA80F9"/>
				<stop  offset="0.9964" style="stop-color:#6165D7"/>
			</linearGradient>
			<path style="fill:url(#SVGID_00000042015134202360663070000003968932053187864251_);" d="M1391.062,679.658
				c-50.044-84.474-285.62-53.575-444.321,38.878c-51.683,30.108-209.289,121.924-220.31,281.404
				c-1.198,17.334-4.278,87.764,37.026,153.661c69.474,110.84,233.737,159.747,407.295,116.634
				c-1.851-18.513-3.703-37.026-5.554-55.54c-14.784,0.513-73.61,0.845-125.891-42.581c-10.473-8.699-72.705-60.391-62.946-107.378
				c16.384-78.883,213.116-35.872,340.646-168.472C1374.187,836.813,1424,735.256,1391.062,679.658z"/>
		</g>
		<g>
			
				<linearGradient id="SVGID_00000171696138819546830470000013721673532271013531_" gradientUnits="userSpaceOnUse" x1="3263.9446" y1="4434.5317" x2="3661.522" y2="4685.4854" gradientTransform="matrix(-0.8294 -0.5586 -0.5586 0.8294 7514.8359 -18.0628)">
				<stop  offset="0" style="stop-color:#AB316D"/>
				<stop  offset="1" style="stop-color:#792D3D"/>
			</linearGradient>
			<path style="fill:url(#SVGID_00000171696138819546830470000013721673532271013531_);" d="M1528.982,2735.003
				c31.955,50.983,77.561,81.698,136.818,92.142L2941.611,932.738l-136.818-92.142L1528.982,2735.003z"/>
			
				<linearGradient id="SVGID_00000085965139623208279840000005432049125591894412_" gradientUnits="userSpaceOnUse" x1="3572.3484" y1="4460.3828" x2="3298.7878" y2="4499.8657" gradientTransform="matrix(-0.8294 -0.5586 -0.5586 0.8294 7514.8359 -18.0628)">
				<stop  offset="0" style="stop-color:#AB316D"/>
				<stop  offset="1" style="stop-color:#792D3D"/>
			</linearGradient>
			<path style="fill:url(#SVGID_00000085965139623208279840000005432049125591894412_);" d="M1614.984,2811.739
				c-19.126-8.619-36.321-20.102-51.586-34.455L2848.06,869.735l51.453,34.652L1614.984,2811.739z"/>
			
				<linearGradient id="SVGID_00000073699889788255767770000013199534295975641022_" gradientUnits="userSpaceOnUse" x1="3396.8076" y1="2822.5864" x2="3261.8389" y2="4168.9004" gradientTransform="matrix(-0.8294 -0.5586 -0.5586 0.8294 7514.8359 -18.0628)">
				<stop  offset="0" style="stop-color:#FFC444"/>
				<stop  offset="0.9964" style="stop-color:#F36F56"/>
			</linearGradient>
			<path style="fill:url(#SVGID_00000073699889788255767770000013199534295975641022_);" d="M2804.793,840.596
				c27.34,56.719,72.736,87.732,136.818,92.142l224.839-471.905c2.392-5.544-4.658-10.292-8.896-5.991L2804.793,840.596z"/>
			
				<linearGradient id="SVGID_00000005960623396476250490000013719355949427374998_" gradientUnits="userSpaceOnUse" x1="3352.1094" y1="2704.9143" x2="3340.8303" y2="3189.9187" gradientTransform="matrix(-0.8294 -0.5586 -0.5586 0.8294 7514.8359 -18.0628)">
				<stop  offset="0" style="stop-color:#AB316D"/>
				<stop  offset="1" style="stop-color:#792D3D"/>
			</linearGradient>
			<path style="fill:url(#SVGID_00000005960623396476250490000013719355949427374998_);" d="M3166.45,460.833l-87.402,183.445
				c-22.944-8.321-42.484-21.49-58.68-39.419l137.187-150.017C3161.792,450.541,3168.843,455.289,3166.45,460.833z"/>
		</g>
		<g>
			
				<linearGradient id="SVGID_00000003794561694919305330000003936284504829201808_" gradientUnits="userSpaceOnUse" x1="3606.6279" y1="4803.4619" x2="3892.946" y2="4984.1875" gradientTransform="matrix(-0.9227 -0.3856 -0.3856 0.9227 7315.6646 -1096.4211)">
				<stop  offset="0" style="stop-color:#40447E"/>
				<stop  offset="0.9964" style="stop-color:#3C3B6B"/>
			</linearGradient>
			<path style="fill:url(#SVGID_00000003794561694919305330000003936284504829201808_);" d="M1695.998,2692.428
				c29.753,31.508,66.292,46.776,109.617,45.804l634.209-1517.772l-109.617-45.804L1695.998,2692.428z"/>
			
				<linearGradient id="SVGID_00000155116278338151236820000010102652698313893811_" gradientUnits="userSpaceOnUse" x1="3702.324" y1="3642.5813" x2="3605.1233" y2="4612.1606" gradientTransform="matrix(-0.9227 -0.3856 -0.3856 0.9227 7315.6646 -1096.4211)">
				<stop  offset="0" style="stop-color:#FFC444"/>
				<stop  offset="0.9964" style="stop-color:#F36F56"/>
			</linearGradient>
			<path style="fill:url(#SVGID_00000155116278338151236820000010102652698313893811_);" d="M2330.207,1174.657
				c27.301,36.209,63.734,51.718,109.617,45.804l92.319-364.985c0.909-4.252-4.74-6.613-7.127-2.978L2330.207,1174.657z"/>
			
				<linearGradient id="SVGID_00000049199592115231961880000017591018248121697457_" gradientUnits="userSpaceOnUse" x1="3670.1372" y1="3557.8376" x2="3662.0144" y2="3907.1245" gradientTransform="matrix(-0.9227 -0.3856 -0.3856 0.9227 7315.6646 -1096.4211)">
				<stop  offset="0" style="stop-color:#AB316D"/>
				<stop  offset="1" style="stop-color:#792D3D"/>
			</linearGradient>
			<path style="fill:url(#SVGID_00000049199592115231961880000017591018248121697457_);" d="M2532.142,855.476l-35.887,141.882
				c-17.378-2.645-33.034-9.193-47-19.574l75.76-125.286C2527.402,848.863,2533.051,851.223,2532.142,855.476z"/>
			
				<linearGradient id="SVGID_00000141457291355862114540000005085045366596663460_" gradientUnits="userSpaceOnUse" x1="2720.9961" y1="572.207" x2="2409.4204" y2="979.1627" gradientTransform="matrix(0.9886 -0.1508 0.1508 0.9886 -52.3308 299.135)">
				<stop  offset="0" style="stop-color:#FF9085"/>
				<stop  offset="1" style="stop-color:#FB6FBB"/>
			</linearGradient>
			<path style="fill:url(#SVGID_00000141457291355862114540000005085045366596663460_);" d="M2675.504,418.554
				c0,0,65.949,135.103,17.296,325.409s-182.231,282.279-228.746,253.581c-46.515-28.698-106.775-140.291-57.707-230.838
				C2455.415,676.159,2646.996,540.811,2675.504,418.554z"/>
			
				<linearGradient id="SVGID_00000061436944098418058790000017038444192304411055_" gradientUnits="userSpaceOnUse" x1="2720.9961" y1="572.207" x2="2409.4204" y2="979.1627" gradientTransform="matrix(0.9886 -0.1508 0.1508 0.9886 -52.3308 299.135)">
				<stop  offset="0" style="stop-color:#FF9085"/>
				<stop  offset="1" style="stop-color:#FB6FBB"/>
			</linearGradient>
			<path style="fill:url(#SVGID_00000061436944098418058790000017038444192304411055_);" d="M2675.504,418.554
				c0,0,65.949,135.103,17.296,325.409s-182.231,282.279-228.746,253.581c-46.515-28.698-106.775-140.291-57.707-230.838
				C2455.415,676.159,2646.996,540.811,2675.504,418.554z"/>
			<g style="opacity:0.3;">
				
					<linearGradient id="SVGID_00000070108316914371943530000001851077855720452995_" gradientUnits="userSpaceOnUse" x1="2748.1516" y1="592.9973" x2="2436.5757" y2="999.953" gradientTransform="matrix(0.9886 -0.1508 0.1508 0.9886 -52.3308 299.135)">
					<stop  offset="0" style="stop-color:#FF9085"/>
					<stop  offset="1" style="stop-color:#FB6FBB"/>
				</linearGradient>
				<path style="fill:url(#SVGID_00000070108316914371943530000001851077855720452995_);" d="M2675.503,418.555
					c-2.736,11.733-6.986,23.588-12.456,35.512c26.332,100.078,11.098,154.648-14.534,186.393
					c-35.796,44.332-84.998,35.778-122.234,93.646c-48.891,75.98,0.946,145.099-39.146,198.879
					c-10.226,13.717-26.627,26.833-54.001,35.269c10.119,12.948,20.842,23.07,30.922,29.29
					c46.515,28.698,180.092-63.275,228.747-253.581C2741.454,553.657,2675.503,418.555,2675.503,418.555z"/>
			</g>
		</g>
		<g>
			
				<linearGradient id="SVGID_00000110432185055229521270000010400060255183309213_" gradientUnits="userSpaceOnUse" x1="1623.8303" y1="3127.3196" x2="1426.548" y2="3210.1782">
				<stop  offset="0" style="stop-color:#40447E"/>
				<stop  offset="0.9964" style="stop-color:#3C3B6B"/>
			</linearGradient>
			<path style="fill:url(#SVGID_00000110432185055229521270000010400060255183309213_);" d="M3245.958,3019.367l-2808.375-24.459
				v72.37c0,19.643,12.249,36.345,28.839,39.322l794.124,142.51c9.424,1.691,18.982,2.14,28.492,1.338l1926.402-162.484
				c17.198-1.45,30.519-18.205,30.519-38.386V3019.367z"/>
			<g>
				
					<linearGradient id="SVGID_00000027584131442933727470000001409748248831558272_" gradientUnits="userSpaceOnUse" x1="1360.3982" y1="2257.8306" x2="1146.296" y2="2347.7534">
					<stop  offset="0" style="stop-color:#40447E"/>
					<stop  offset="0.9964" style="stop-color:#3C3B6B"/>
				</linearGradient>
				<path style="fill:url(#SVGID_00000027584131442933727470000001409748248831558272_);" d="M2341.906,2902.051L468.492,3034.444
					c-33.523,2.369-60.78-22.804-60.78-56.232V1638.943c0-33.428,27.257-60.528,60.78-60.528h1873.414
					c27.618,0,49.948,24.497,49.948,54.716v1210.674C2391.854,2874.023,2369.524,2900.099,2341.906,2902.051z"/>
				
					<linearGradient id="SVGID_00000063616637633658006090000006691716721586707632_" gradientUnits="userSpaceOnUse" x1="437.5833" y1="2306.5063" x2="2421.7263" y2="2306.5063">
					<stop  offset="0" style="stop-color:#40447E"/>
					<stop  offset="0.9964" style="stop-color:#3C3B6B"/>
				</linearGradient>
				<path style="fill:url(#SVGID_00000063616637633658006090000006691716721586707632_);" d="M2371.778,2902.051L498.364,3034.444
					c-33.524,2.369-60.781-22.804-60.781-56.232V1638.943c0-33.428,27.257-60.528,60.781-60.528h1873.413
					c27.619,0,49.949,24.497,49.949,54.716v1210.674C2421.726,2874.023,2399.396,2900.099,2371.778,2902.051z"/>
				<path style="fill:#FFFFFF;" d="M2313.416,2816.696L568.527,2931.697c-27.281,1.798-49.45-18.864-49.45-46.154V1713.012
					c0-27.289,22.169-49.505,49.45-49.618l1744.889-7.221c22.783-0.095,41.212,19.979,41.212,44.835v1067.966
					C2354.627,2793.83,2336.199,2815.195,2313.416,2816.696z"/>
				<path style="fill:#FFFFFF;" d="M1501.234,1615.047c0,12.444-9.642,22.561-21.549,22.597
					c-11.922,0.037-21.597-10.045-21.597-22.517c0-12.472,9.675-22.59,21.597-22.598
					C1491.592,1592.521,1501.234,1602.602,1501.234,1615.047z"/>
				<path style="opacity:0.48;fill:#FFFFFF;" d="M1920.408,2534.736c-144.424-77.707-257.983,20.757-367.576-76.393
					c-66.443-58.899-33.822-102.82-115.578-190.836c-90.551-97.486-149.505-64.716-240.507-152.454
					c-115.066-110.939-57.517-197.252-156.632-276.903c-120.241-96.628-249.914-7.193-364.375-99.862
					c-49.368-39.969-76.455-98.076-90.6-159.873H473.146c-19.625,0-35.563,15.906-35.563,35.528V3002.21
					c0,19.621,15.937,34.397,35.563,33.004l1909.315-135.527c9.37-0.665,17.679-6.136,23.01-14.067
					c-139.767-5.094-225.633-51.948-280.521-100.385C2017.575,2690.479,2036.199,2597.036,1920.408,2534.736z"/>
			</g>
			
				<linearGradient id="SVGID_00000036241428467268602860000016893328235314567057_" gradientUnits="userSpaceOnUse" x1="437.5833" y1="3040.2349" x2="3245.9578" y2="3040.2349">
				<stop  offset="0" style="stop-color:#40447E"/>
				<stop  offset="0.9964" style="stop-color:#3C3B6B"/>
			</linearGradient>
			<path style="fill:url(#SVGID_00000036241428467268602860000016893328235314567057_);" d="M2325.032,2896.047L437.583,3035.403
				l822.963,147.684c9.424,1.691,18.982,2.14,28.492,1.338l1956.92-165.058l-890.902-122.373
				C2345.093,2895.625,2335.044,2895.308,2325.032,2896.047z"/>
			
				<linearGradient id="SVGID_00000173880710359365542820000018150701750321637505_" gradientUnits="userSpaceOnUse" x1="712.9916" y1="3017.2246" x2="2770.6699" y2="3017.2246">
				<stop  offset="0" style="stop-color:#40447E"/>
				<stop  offset="0.9964" style="stop-color:#3C3B6B"/>
			</linearGradient>
			<polygon style="opacity:0.3;fill:url(#SVGID_00000173880710359365542820000018150701750321637505_);" points="712.992,3038.907 
				2284.349,2921.161 2770.67,2987.422 1212.849,3113.289 			"/>
		</g>
		<g>
			<polygon style="fill:#D8DEE8;" points="2308.644,1989.569 563.574,2016.165 563.574,1698.963 2308.644,1698.963 			"/>
			<polygon style="fill:#D8DEE8;" points="1755.303,2555.361 649.712,2603.617 649.712,2071.4 1755.303,2051.534 			"/>
			<polygon style="fill:#D8DEE8;" points="2235.767,2190.347 1819.895,2201.024 1819.895,2050.373 2235.767,2042.9 			"/>
			<polygon style="fill:#D8DEE8;" points="2235.767,2534.389 1819.895,2552.541 1819.895,2254.379 2235.767,2242.568 			"/>
			<polygon style="fill:#D8DEE8;" points="2235.767,2601.969 649.712,2676.796 649.712,2803.198 2235.767,2718.698 			"/>
		</g>
		<g>
			
				<linearGradient id="SVGID_00000108301775019656935110000004942295919734143900_" gradientUnits="userSpaceOnUse" x1="2156.6753" y1="1050.2837" x2="1382.0167" y2="2062.0815">
				<stop  offset="0" style="stop-color:#FF9085"/>
				<stop  offset="1" style="stop-color:#FB6FBB"/>
			</linearGradient>
			<path style="fill:url(#SVGID_00000108301775019656935110000004942295919734143900_);" d="M2713.621,1799.133l-1997.428,25.08
				c-11.319,0.142-20.57-8.994-20.57-20.313V1476.42c0-11.22,9.095-20.315,20.315-20.315h1997.428
				c11.22,0,20.315,9.095,20.315,20.315v302.399C2733.681,1789.94,2724.74,1798.993,2713.621,1799.133z"/>
			
				<linearGradient id="SVGID_00000132772884305387931740000004618893718804361141_" gradientUnits="userSpaceOnUse" x1="1435.1699" y1="2396.2388" x2="2172.9395" y2="1626.8513">
				<stop  offset="0.0036" style="stop-color:#E38DDD"/>
				<stop  offset="1" style="stop-color:#9571F6"/>
			</linearGradient>
			<polygon style="fill:url(#SVGID_00000132772884305387931740000004618893718804361141_);" points="2273.09,2467.395 
				1005.343,2513.578 1005.343,1899.5 2273.09,1880.135 			"/>
			
				<linearGradient id="SVGID_00000157997056407453172960000009178797478236914574_" gradientUnits="userSpaceOnUse" x1="2597.561" y1="1947.9546" x2="1965.1862" y2="3096.7676">
				<stop  offset="0" style="stop-color:#FFC444"/>
				<stop  offset="0.9964" style="stop-color:#F36F56"/>
			</linearGradient>
			<polygon style="fill:url(#SVGID_00000157997056407453172960000009178797478236914574_);" points="2832.132,2044.226 
				2347.958,2054.694 2347.958,1878.991 2832.132,1871.596 			"/>
			
				<linearGradient id="SVGID_00000176756758017840387270000014944190899892996761_" gradientUnits="userSpaceOnUse" x1="2732.9016" y1="2022.4535" x2="2100.5283" y2="3171.2634">
				<stop  offset="0" style="stop-color:#FFC444"/>
				<stop  offset="0.9964" style="stop-color:#F36F56"/>
			</linearGradient>
			<polygon style="fill:url(#SVGID_00000176756758017840387270000014944190899892996761_);" points="2832.132,2447.029 
				2347.958,2464.667 2347.958,2116.922 2832.132,2105.365 			"/>
			
				<linearGradient id="SVGID_00000020392231534772321770000006417329891120661906_" gradientUnits="userSpaceOnUse" x1="1613.5352" y1="2766.4978" x2="2576.1968" y2="2365.9736">
				<stop  offset="0.0036" style="stop-color:#E38DDD"/>
				<stop  offset="1" style="stop-color:#9571F6"/>
			</linearGradient>
			<polygon style="fill:url(#SVGID_00000020392231534772321770000006417329891120661906_);" points="2887.87,2511.174 
				1068.811,2581.875 1068.811,2727.4 2887.87,2647.559 			"/>
			
				<linearGradient id="SVGID_00000105385553175822962680000016550762217451851442_" gradientUnits="userSpaceOnUse" x1="782.204" y1="1497.2424" x2="766.9612" y2="1544.0221">
				<stop  offset="0.494" style="stop-color:#EBEFF2"/>
				<stop  offset="1" style="stop-color:#FFFFFF"/>
			</linearGradient>
			<circle style="fill:url(#SVGID_00000105385553175822962680000016550762217451851442_);" cx="774.583" cy="1520.632" r="24.594"/>
			
				<linearGradient id="SVGID_00000106854827191224428410000017396680912321472136_" gradientUnits="userSpaceOnUse" x1="863.0114" y1="1497.2424" x2="847.7686" y2="1544.0221">
				<stop  offset="0.494" style="stop-color:#EBEFF2"/>
				<stop  offset="1" style="stop-color:#FFFFFF"/>
			</linearGradient>
			<circle style="fill:url(#SVGID_00000106854827191224428410000017396680912321472136_);" cx="855.39" cy="1520.632" r="24.594"/>
			
				<linearGradient id="SVGID_00000173163239398000353540000013886378770734828706_" gradientUnits="userSpaceOnUse" x1="943.8187" y1="1497.2424" x2="928.5759" y2="1544.0221">
				<stop  offset="0.494" style="stop-color:#EBEFF2"/>
				<stop  offset="1" style="stop-color:#FFFFFF"/>
			</linearGradient>
			<circle style="fill:url(#SVGID_00000173163239398000353540000013886378770734828706_);" cx="936.197" cy="1520.632" r="24.594"/>
		</g>
		
			<linearGradient id="SVGID_00000013188341185270059360000018211913908045118871_" gradientUnits="userSpaceOnUse" x1="2233.9854" y1="1541.2799" x2="2191.825" y2="1723.9752">
			<stop  offset="0" style="stop-color:#FFC444"/>
			<stop  offset="0.9964" style="stop-color:#F36F56"/>
		</linearGradient>
		<path style="fill:url(#SVGID_00000013188341185270059360000018211913908045118871_);" d="M2170.476,1456.105
			c0,0,85.105-33.956,102.614-22.991c17.509,10.965,35.552,54.151,48.489,70.326c12.937,16.176-22.08,16.452-48.489-7.401
			C2246.682,1472.186,2170.476,1456.105,2170.476,1456.105z"/>
	</g>
</g>
</svg>
