<?xml version="1.0" encoding="utf-8"?>
<!-- Generator: Adobe Illustrator 27.5.0, SVG Export Plug-In . SVG Version: 6.00 Build 0)  -->
<svg version="1.1" xmlns="http://www.w3.org/2000/svg" xmlns:xlink="http://www.w3.org/1999/xlink" x="0px" y="0px"
	 viewBox="0 0 500 500" style="enable-background:new 0 0 500 500;" xml:space="preserve">
<g id="BACKGROUND">
	<g>
		<rect y="0.202" style="fill:#DAEBFF;" width="500" height="499.798"/>
	</g>
</g>
<g id="DESIGNED_BY_FREEPIK">
	<g>
		<g id="XMLID_319_">
			<g id="XMLID_338_">
				<path id="XMLID_346_" style="fill:#1D262D;" d="M260.103,467.15c-0.432,0.443-0.803,0.932-1.107,1.453l-0.465-0.241
					c-0.068-0.297-0.35-0.502-0.66-0.466c-0.33,0.039-0.566,0.339-0.529,0.67c0.039,0.331,0.34,0.567,0.67,0.528
					c0.066-0.007,0.127-0.025,0.184-0.052l0.451,0.234c-0.25,0.554-0.432,1.139-0.539,1.743l0.748,0.132
					c0.229-1.306,0.85-2.507,1.791-3.473L260.103,467.15z"/>
				<path id="XMLID_345_" style="fill:#1D262D;" d="M265.592,464.849c-0.172,0-0.342,0.006-0.51,0.017l-0.074-0.626
					c0.188-0.149,0.297-0.389,0.266-0.645c-0.045-0.393-0.402-0.674-0.795-0.628c-0.393,0.046-0.674,0.402-0.627,0.796
					c0.029,0.254,0.189,0.461,0.404,0.564l0.072,0.624c-0.713,0.116-1.402,0.332-2.059,0.646l0.326,0.685
					c0.936-0.447,1.941-0.674,2.996-0.674c0.496,0,0.992,0.053,1.475,0.158l0.16-0.741
					C266.691,464.907,266.143,464.849,265.592,464.849z"/>
				<path id="XMLID_344_" style="fill:#1D262D;" d="M272.193,467.396c0.332-0.04,0.566-0.341,0.525-0.672
					c-0.039-0.331-0.34-0.566-0.672-0.525c-0.309,0.038-0.535,0.304-0.529,0.608l-0.416,0.363c-0.418-0.43-0.891-0.813-1.408-1.14
					l-0.404,0.642c1.135,0.715,2.021,1.727,2.564,2.925l0.69-0.313c-0.25-0.554-0.566-1.071-0.941-1.545l0.402-0.351
					C272.064,467.4,272.129,467.404,272.193,467.396z"/>
				<path id="XMLID_343_" style="fill:#1D262D;" d="M265.045,475.057c-0.387,0.023-0.775,0.035-1.158,0.035
					c-0.879,0-1.732-0.06-2.478-0.18c-0.391-0.062-0.846-0.154-1.27-0.292c1.047,1.861,3.068,3.125,5.389,3.125
					c2.855,0,5.262-1.916,5.949-4.503c-0.682,0.449-1.506,0.825-2.459,1.122C267.838,474.732,266.463,474.972,265.045,475.057z"/>
				<path id="XMLID_339_" style="fill:#1D262D;" d="M265.592,466.365c-3.352,0-6.08,2.666-6.08,5.943
					c0,0.425,0.047,0.849,0.137,1.261c0.674,0.483,2.707,0.891,5.348,0.732c2.881-0.174,5.297-0.958,6.672-2.159
					c-0.004-0.194-0.02-0.39-0.045-0.581C271.244,468.599,268.65,466.365,265.592,466.365z M263.432,472.88
					c-1.02,0-1.85-0.83-1.85-1.85c0-1.021,0.83-1.851,1.85-1.851c1.02,0,1.85,0.83,1.85,1.851
					C265.281,472.05,264.451,472.88,263.432,472.88z M268.17,471.972c-0.75,0-1.361-0.61-1.361-1.36s0.611-1.36,1.361-1.36
					s1.359,0.61,1.359,1.36S268.92,471.972,268.17,471.972z"/>
			</g>
			<path id="XMLID_336_" style="fill:#1D262D;" d="M281.596,468.232c-0.295-0.116-0.807-0.309-1.383-0.238
				c-0.551,0.069-0.844,0.341-0.844,1.007v0.866h2.229v1.717h-2.229v5.455h-1.932v-5.455h-1.34v-1.717h1.34v-0.889
				c0-1.68,0.895-2.782,2.568-2.782c0.643,0,1.156,0.121,1.59,0.308V468.232z"/>
			<path id="XMLID_334_" style="fill:#1D262D;" d="M286.297,471.564c-0.176-0.029-0.357-0.046-0.525-0.046
				c-0.894,0-1.51,0.548-1.51,1.613v3.908h-1.932v-7.172h1.873v0.784c0.451-0.673,1.139-0.977,2.02-0.977
				c0.414,0,0.848,0.128,1.096,0.337L286.297,471.564z"/>
			<path id="XMLID_331_" style="fill:#1D262D;" d="M293.965,473.442c0,0.222-0.016,0.488-0.037,0.651h-5.084
				c0.207,1.036,0.932,1.487,1.842,1.487c0.623,0,1.295-0.252,1.815-0.688l1.133,1.243c-0.814,0.748-1.852,1.089-3.057,1.089
				c-2.199,0-3.725-1.496-3.725-3.753c0-2.258,1.48-3.797,3.627-3.797C292.543,469.675,293.957,471.207,293.965,473.442z
				 M288.852,472.776h3.174c-0.178-0.918-0.732-1.437-1.561-1.437C289.555,471.34,289.021,471.888,288.852,472.776z"/>
			<path id="XMLID_328_" style="fill:#1D262D;" d="M301.619,473.442c0,0.222-0.016,0.488-0.037,0.651h-5.086
				c0.207,1.036,0.934,1.487,1.844,1.487c0.621,0,1.295-0.252,1.813-0.688l1.133,1.243c-0.814,0.748-1.85,1.089-3.057,1.089
				c-2.199,0-3.723-1.496-3.723-3.753c0-2.258,1.48-3.797,3.627-3.797C300.197,469.675,301.611,471.207,301.619,473.442z
				 M296.504,472.776h3.176c-0.178-0.918-0.734-1.437-1.563-1.437C297.207,471.34,296.674,471.888,296.504,472.776z"/>
			<path id="XMLID_325_" style="fill:#1D262D;" d="M309.965,473.449c0,2.154-1.496,3.775-3.473,3.775
				c-0.961,0-1.643-0.378-2.109-0.933V480h-1.924v-10.133h1.887v0.792c0.467-0.585,1.154-0.984,2.139-0.984
				C308.469,469.675,309.965,471.296,309.965,473.449z M304.287,473.449c0,1.133,0.748,1.977,1.844,1.977
				c1.139,0,1.85-0.881,1.85-1.977c0-1.095-0.711-1.976-1.85-1.976C305.035,471.474,304.287,472.317,304.287,473.449z"/>
			<path id="XMLID_322_" style="fill:#1D262D;" d="M313.068,467.521c0,0.696-0.541,1.229-1.236,1.229
				c-0.697,0-1.229-0.533-1.229-1.229c0-0.695,0.531-1.243,1.229-1.243C312.527,466.277,313.068,466.825,313.068,467.521z
				 M312.809,477.039h-1.932v-7.172h1.932V477.039z"/>
			<path id="XMLID_320_" style="fill:#1D262D;" d="M316.031,472.421l2.703-2.554h2.367l-3.479,3.375l3.502,3.797h-2.377
				l-2.717-2.901v2.901H314.1v-10.658h1.932V472.421z"/>
		</g>
		<g>
			<path style="fill:#1D262D;" d="M184.412,476.975v-1.055c-0.527,0.718-1.391,1.23-2.387,1.23c-1.846,0-3.15-1.406-3.15-3.706
				c0-2.256,1.289-3.721,3.15-3.721c0.951,0,1.816,0.469,2.387,1.245v-3.765h1.1v9.771H184.412z M184.412,475.056v-3.208
				c-0.395-0.615-1.244-1.143-2.123-1.143c-1.422,0-2.271,1.172-2.271,2.739c0,1.567,0.85,2.725,2.271,2.725
				C183.168,476.169,184.018,475.671,184.412,475.056z"/>
			<path style="fill:#1D262D;" d="M186.932,473.43c0-2.051,1.465-3.706,3.486-3.706c2.139,0,3.398,1.67,3.398,3.794v0.278h-5.727
				c0.088,1.333,1.025,2.446,2.549,2.446c0.805,0,1.625-0.322,2.182-0.894l0.527,0.718c-0.703,0.703-1.654,1.084-2.813,1.084
				C188.441,477.15,186.932,475.642,186.932,473.43z M190.404,470.632c-1.51,0-2.256,1.275-2.314,2.358h4.643
				C192.719,471.935,192.016,470.632,190.404,470.632z"/>
			<path style="fill:#1D262D;" d="M194.607,476.037l0.57-0.791c0.469,0.542,1.363,1.011,2.33,1.011c1.084,0,1.67-0.513,1.67-1.216
				c0-1.714-4.381-0.659-4.381-3.281c0-1.099,0.953-2.036,2.637-2.036c1.201,0,2.051,0.454,2.623,1.025l-0.514,0.762
				c-0.424-0.513-1.201-0.894-2.109-0.894c-0.967,0-1.566,0.483-1.566,1.113c0,1.553,4.379,0.527,4.379,3.281
				c0,1.187-0.951,2.139-2.783,2.139C196.307,477.15,195.324,476.799,194.607,476.037z"/>
			<path style="fill:#1D262D;" d="M201.477,468.156c0-0.41,0.338-0.747,0.732-0.747c0.41,0,0.748,0.337,0.748,0.747
				c0,0.41-0.338,0.732-0.748,0.732C201.814,468.889,201.477,468.566,201.477,468.156z M201.668,476.975v-7.075h1.098v7.075H201.668
				z"/>
			<path style="fill:#1D262D;" d="M204.582,478.791l0.557-0.82c0.586,0.703,1.289,0.967,2.299,0.967
				c1.172,0,2.271-0.571,2.271-2.124v-1.011c-0.514,0.718-1.377,1.26-2.373,1.26c-1.846,0-3.15-1.377-3.15-3.662
				c0-2.27,1.289-3.677,3.15-3.677c0.951,0,1.801,0.469,2.373,1.245v-1.069h1.098v6.87c0,2.344-1.641,3.076-3.369,3.076
				C206.236,479.846,205.416,479.61,204.582,478.791z M209.709,474.939v-3.091c-0.381-0.615-1.23-1.143-2.109-1.143
				c-1.422,0-2.27,1.128-2.27,2.695c0,1.553,0.848,2.695,2.27,2.695C208.479,476.096,209.328,475.554,209.709,474.939z"/>
			<path style="fill:#1D262D;" d="M217.414,476.975v-4.629c0-1.245-0.631-1.641-1.582-1.641c-0.865,0-1.686,0.527-2.096,1.099v5.171
				h-1.098v-7.075h1.098v1.025c0.498-0.586,1.465-1.201,2.52-1.201c1.48,0,2.256,0.747,2.256,2.285v4.966H217.414z"/>
			<path style="fill:#1D262D;" d="M219.932,473.43c0-2.051,1.465-3.706,3.486-3.706c2.139,0,3.398,1.67,3.398,3.794v0.278h-5.727
				c0.088,1.333,1.025,2.446,2.549,2.446c0.805,0,1.625-0.322,2.182-0.894l0.527,0.718c-0.703,0.703-1.654,1.084-2.813,1.084
				C221.441,477.15,219.932,475.642,219.932,473.43z M223.404,470.632c-1.51,0-2.256,1.275-2.314,2.358h4.643
				C225.719,471.935,225.016,470.632,223.404,470.632z"/>
			<path style="fill:#1D262D;" d="M233.35,476.975v-1.055c-0.527,0.718-1.391,1.23-2.387,1.23c-1.846,0-3.15-1.406-3.15-3.706
				c0-2.256,1.289-3.721,3.15-3.721c0.951,0,1.816,0.469,2.387,1.245v-3.765h1.1v9.771H233.35z M233.35,475.056v-3.208
				c-0.395-0.615-1.244-1.143-2.123-1.143c-1.422,0-2.271,1.172-2.271,2.739c0,1.567,0.85,2.725,2.271,2.725
				C232.105,476.169,232.955,475.671,233.35,475.056z"/>
			<path style="fill:#1D262D;" d="M239.691,476.975v-9.771h1.1v3.765c0.57-0.776,1.42-1.245,2.387-1.245
				c1.846,0,3.15,1.465,3.15,3.721c0,2.3-1.305,3.706-3.15,3.706c-0.996,0-1.859-0.513-2.387-1.23v1.055H239.691z M242.9,476.169
				c1.436,0,2.285-1.157,2.285-2.725c0-1.567-0.85-2.739-2.285-2.739c-0.865,0-1.729,0.527-2.109,1.143v3.208
				C241.172,475.671,242.035,476.169,242.9,476.169z"/>
			<path style="fill:#1D262D;" d="M247.529,478.747c0.16,0.073,0.424,0.117,0.6,0.117c0.484,0,0.807-0.161,1.055-0.747l0.469-1.069
				l-2.959-7.148h1.188l2.357,5.801l2.344-5.801h1.201l-3.545,8.511c-0.424,1.024-1.143,1.421-2.08,1.436
				c-0.234,0-0.6-0.044-0.805-0.104L247.529,478.747z"/>
		</g>
	</g>
</g>
<g id="OBJECTS">
	<path style="fill:#B1D5F2;" d="M274.188,145.721l-13.604,1.158c-0.587-2.559-1.593-4.956-2.946-7.114l10.439-8.802
		c1.173-0.988,1.245-2.686,0.16-3.771l-5.413-5.413c-1.085-1.084-2.781-1.013-3.771,0.16l-8.802,10.439
		c-2.158-1.354-4.555-2.359-7.113-2.947l1.158-13.605c0.13-1.527-1.019-2.779-2.554-2.779h-7.654c-1.535,0-2.683,1.252-2.553,2.779
		l1.157,13.605c-2.558,0.587-4.955,1.593-7.113,2.947l-8.802-10.439c-0.989-1.173-2.686-1.245-3.771-0.16l-5.413,5.413
		c-1.086,1.085-1.013,2.781,0.16,3.771l10.439,8.802c-1.354,2.159-2.36,4.555-2.947,7.114l-13.605-1.158
		c-1.529-0.13-2.779,1.019-2.779,2.554v7.654c0,1.535,1.251,2.683,2.779,2.553l13.605-1.157c0.587,2.559,1.594,4.955,2.946,7.114
		l-10.438,8.801c-1.173,0.989-1.246,2.686-0.16,3.77l5.413,5.413c1.085,1.084,2.782,1.012,3.771-0.16l8.8-10.438
		c2.16,1.353,4.557,2.36,7.115,2.947l-1.157,13.604c-0.13,1.529,1.018,2.779,2.553,2.779h7.654c1.535,0,2.685-1.251,2.554-2.779
		l-1.158-13.604c2.559-0.587,4.955-1.594,7.115-2.947l8.8,10.438c0.988,1.172,2.686,1.246,3.771,0.161l5.413-5.413
		c1.085-1.085,1.013-2.782-0.161-3.771l-10.438-8.801c1.354-2.16,2.359-4.556,2.946-7.114l13.604,1.157
		c1.528,0.13,2.78-1.018,2.78-2.553v-7.654C276.968,146.74,275.717,145.59,274.188,145.721z M237.914,159.56
		c-4.119,0-7.458-3.339-7.458-7.459c0-4.119,3.339-7.458,7.458-7.458c4.119,0,7.459,3.339,7.459,7.458
		C245.372,156.221,242.033,159.56,237.914,159.56z"/>
	<path style="fill:#CBE0F4;" d="M463.296,362.712c0,5.911-4.792,10.702-10.702,10.702H47.407c-5.911,0-10.703-4.791-10.703-10.702
		l0,0c0-5.911,4.792-10.703,10.703-10.703h405.187C458.504,352.009,463.296,356.801,463.296,362.712L463.296,362.712z"/>
	<g>
		<g>
			<path style="fill:#77A9F2;" d="M376.61,324.408c0,5.8-4.745,10.546-10.546,10.546H133.936c-5.8,0-10.546-4.746-10.546-10.546
				V163.595c0-5.8,4.746-10.546,10.546-10.546h232.129c5.801,0,10.546,4.746,10.546,10.546V324.408z"/>
			<path style="fill:#FFFFFF;" d="M123.39,310.203v14.205c0,5.8,4.746,10.546,10.546,10.546h232.129
				c5.801,0,10.546-4.746,10.546-10.546v-14.205H123.39z"/>
			<rect x="134.349" y="164.672" style="fill:#3A5799;" width="231.302" height="132.876"/>
		</g>
		<polygon style="fill:#B7D2F9;" points="293.589,355.198 206.411,355.198 213.793,334.954 286.207,334.954 		"/>
		<rect x="196.105" y="355.198" style="fill:#97C0FE;" width="107.79" height="8.788"/>
	</g>
	<rect x="144.895" y="174.464" style="fill:#FFFFFF;" width="210.211" height="112.977"/>
	<g>
		<g>
			<rect x="144.895" y="174.464" style="fill:#EAEAEA;" width="210.211" height="12.324"/>
			<g>
				<path style="fill:#F48771;" d="M154.939,180.626c0,1.706-1.383,3.089-3.089,3.089s-3.089-1.382-3.089-3.089
					c0-1.706,1.383-3.089,3.089-3.089S154.939,178.92,154.939,180.626z"/>
				<path style="fill:#FBD06A;" d="M165.875,180.626c0,1.706-1.383,3.089-3.089,3.089c-1.706,0-3.09-1.382-3.09-3.089
					c0-1.706,1.384-3.089,3.09-3.089C164.492,177.537,165.875,178.92,165.875,180.626z"/>
				<path style="fill:#93DBC5;" d="M176.811,180.626c0,1.706-1.384,3.089-3.089,3.089c-1.706,0-3.089-1.382-3.089-3.089
					c0-1.706,1.383-3.089,3.089-3.089C175.427,177.537,176.811,178.92,176.811,180.626z"/>
			</g>
		</g>
		<rect x="183.404" y="177.537" style="fill:#FFFFFF;" width="165.66" height="6.178"/>
	</g>
	<g>
		<g>
			<rect x="157.555" y="193.581" style="fill:#F49E87;" width="16.623" height="8.058"/>
			<rect x="185.995" y="193.581" style="fill:#F49E87;" width="16.623" height="8.058"/>
			<rect x="214.434" y="193.581" style="fill:#F49E87;" width="16.623" height="8.058"/>
			<rect x="242.873" y="193.581" style="fill:#F49E87;" width="16.623" height="8.058"/>
		</g>
		<g>
			<g>
				<g>
					<path style="fill:#FFC86D;" d="M311.382,202.113h-33.891c-2.352,0-4.266-1.914-4.266-4.266v-0.474
						c0-2.353,1.913-4.266,4.266-4.266h33.891c2.353,0,4.266,1.914,4.266,4.266v0.474
						C315.647,200.199,313.734,202.113,311.382,202.113z M277.491,194.055c-1.829,0-3.317,1.489-3.317,3.318v0.474
						c0,1.829,1.488,3.318,3.317,3.318h33.891c1.829,0,3.318-1.489,3.318-3.318v-0.474c0-1.829-1.489-3.318-3.318-3.318H277.491z"/>
				</g>
				<g>
					<path style="fill:#FFC86D;" d="M279.386,195.872c-0.671-0.671-1.759-0.671-2.431,0c-0.67,0.67-0.67,1.759,0,2.43
						c0.551,0.551,1.38,0.642,2.03,0.288l0.714,0.713c0.19,0.19,0.499,0.19,0.69,0c0.189-0.19,0.189-0.499,0-0.688l-0.714-0.714
						C280.027,197.25,279.936,196.422,279.386,195.872z"/>
				</g>
			</g>
			<rect x="325.822" y="193.581" style="fill:#F49E87;" width="16.623" height="8.058"/>
		</g>
	</g>
	<g>
		<g>
			<path style="fill:#FFDCA9;" d="M184.826,259.228h-24.664c-5.62,0-10.191-4.571-10.191-10.19c0-5.619,4.571-10.191,10.191-10.191
				h24.664c5.62,0,10.191,4.572,10.191,10.191C195.017,254.657,190.446,259.228,184.826,259.228z M160.162,240.27
				c-4.835,0-8.769,3.934-8.769,8.769c0,4.835,3.934,8.769,8.769,8.769h24.664c4.835,0,8.769-3.934,8.769-8.769
				c0-4.835-3.934-8.769-8.769-8.769H160.162z"/>
		</g>
		<g>
			<rect x="149.971" y="264.838" style="fill:#FFDCA9;" width="44.335" height="2.212"/>
			<rect x="149.971" y="270.526" style="fill:#FFDCA9;" width="44.335" height="2.211"/>
			<rect x="149.971" y="276.214" style="fill:#FFDCA9;" width="44.335" height="2.212"/>
		</g>
	</g>
	<g>
		<g>
			<path style="fill:#F9C83E;" d="M236.017,259.228h-24.664c-5.619,0-10.191-4.571-10.191-10.19c0-5.619,4.572-10.191,10.191-10.191
				h24.664c5.62,0,10.191,4.572,10.191,10.191C246.208,254.657,241.637,259.228,236.017,259.228z"/>
		</g>
		<g>
			<rect x="201.518" y="264.838" style="fill:#FFDCA9;" width="44.335" height="2.212"/>
			<rect x="201.518" y="270.526" style="fill:#FFDCA9;" width="44.335" height="2.211"/>
			<rect x="201.518" y="276.214" style="fill:#FFDCA9;" width="44.335" height="2.212"/>
		</g>
	</g>
	<g>
		<g>
			<path style="fill:#FFDCA9;" d="M287.208,259.228h-24.664c-5.619,0-10.19-4.571-10.19-10.19c0-5.619,4.571-10.191,10.19-10.191
				h24.664c5.62,0,10.191,4.572,10.191,10.191C297.399,254.657,292.828,259.228,287.208,259.228z M262.544,240.27
				c-4.835,0-8.768,3.934-8.768,8.769c0,4.835,3.934,8.769,8.768,8.769h24.664c4.836,0,8.769-3.934,8.769-8.769
				c0-4.835-3.934-8.769-8.769-8.769H262.544z"/>
		</g>
		<g>
			<rect x="252.709" y="264.838" style="fill:#FFDCA9;" width="44.335" height="2.212"/>
			<rect x="252.709" y="270.526" style="fill:#FFDCA9;" width="44.335" height="2.211"/>
			<rect x="252.709" y="276.214" style="fill:#FFDCA9;" width="44.335" height="2.212"/>
		</g>
	</g>
	<g>
		<g>
			<path style="fill:#FFDCA9;" d="M338.399,259.228h-24.664c-5.619,0-10.191-4.571-10.191-10.19c0-5.619,4.572-10.191,10.191-10.191
				h24.664c5.619,0,10.19,4.572,10.19,10.191C348.59,254.657,344.019,259.228,338.399,259.228z M313.735,240.27
				c-4.835,0-8.769,3.934-8.769,8.769c0,4.835,3.934,8.769,8.769,8.769h24.664c4.835,0,8.769-3.934,8.769-8.769
				c0-4.835-3.934-8.769-8.769-8.769H313.735z"/>
		</g>
		<g>
			<rect x="303.899" y="264.838" style="fill:#FFDCA9;" width="44.335" height="2.212"/>
			<rect x="303.899" y="270.526" style="fill:#FFDCA9;" width="44.335" height="2.211"/>
			<rect x="303.899" y="276.214" style="fill:#FFDCA9;" width="44.335" height="2.212"/>
		</g>
	</g>
	<g>
		<g>
			<path style="fill:#FFDCA9;" d="M342.919,234.898H157.081c-3.528,0-6.399-2.87-6.399-6.399v-14.536
				c0-3.529,2.871-6.399,6.399-6.399h185.838c3.528,0,6.398,2.87,6.398,6.399v14.536
				C349.317,232.027,346.447,234.898,342.919,234.898z M157.081,208.986c-2.745,0-4.977,2.233-4.977,4.977v14.536
				c0,2.745,2.232,4.977,4.977,4.977h185.838c2.744,0,4.977-2.232,4.977-4.977v-14.536c0-2.745-2.232-4.977-4.977-4.977H157.081z"/>
		</g>
		<g>
			<path style="fill:#EAEAEA;" d="M242.557,228.915c0,1.126-0.912,2.038-2.037,2.038c-1.125,0-2.037-0.912-2.037-2.038
				c0-1.124,0.912-2.037,2.037-2.037C241.645,226.878,242.557,227.791,242.557,228.915z"/>
			<path style="fill:#EAEAEA;" d="M252.037,228.915c0,1.126-0.912,2.038-2.037,2.038s-2.037-0.912-2.037-2.038
				c0-1.124,0.912-2.037,2.037-2.037S252.037,227.791,252.037,228.915z"/>
			<path style="fill:#EAEAEA;" d="M261.517,228.915c0,1.126-0.912,2.038-2.037,2.038c-1.124,0-2.036-0.912-2.036-2.038
				c0-1.124,0.912-2.037,2.036-2.037C260.604,226.878,261.517,227.791,261.517,228.915z"/>
		</g>
	</g>
	<g>
		<path style="fill:#F9C83E;" d="M346.466,249.439h-24.664c-5.62,0-10.191-4.572-10.191-10.191c0-5.619,4.571-10.191,10.191-10.191
			h24.664c5.619,0,10.19,4.571,10.19,10.191C356.656,244.866,352.085,249.439,346.466,249.439z"/>
	</g>
	<g>
		
			<rect x="-4.861" y="249.84" transform="matrix(0.1534 -0.9882 0.9882 0.1534 -178.2289 316.294)" style="fill:#F9C83E;" width="200.68" height="24.648"/>
		<g>
			<g>
				<g>
					<g>
						
							<rect x="114.06" y="168.897" transform="matrix(0.1534 -0.9882 0.9882 0.1534 -75.4291 262.0738)" style="fill:#E8A205;" width="2.351" height="12.324"/>
					</g>
					<g>
						
							<rect x="115.668" y="179.923" transform="matrix(0.1533 -0.9882 0.9882 0.1533 -82.1455 270.6068)" style="fill:#E8A205;" width="2.351" height="6.636"/>
					</g>
					<g>
						
							<rect x="114.466" y="187.668" transform="matrix(0.1534 -0.9882 0.9882 0.1534 -90.8192 275.9706)" style="fill:#E8A205;" width="2.352" height="6.636"/>
					</g>
					<g>
						
							<rect x="113.263" y="195.414" transform="matrix(0.1534 -0.9882 0.9882 0.1534 -99.4962 281.3278)" style="fill:#E8A205;" width="2.352" height="6.636"/>
					</g>
				</g>
				<g>
					<g>
						
							<rect x="109.251" y="199.879" transform="matrix(0.1533 -0.9882 0.9882 0.1533 -110.1101 283.5683)" style="fill:#E8A205;" width="2.351" height="12.324"/>
					</g>
					<g>
						
							<rect x="110.859" y="210.904" transform="matrix(0.1534 -0.9882 0.9882 0.1534 -116.8406 292.0623)" style="fill:#E8A205;" width="2.352" height="6.636"/>
					</g>
					<g>
						
							<rect x="109.656" y="218.65" transform="matrix(0.1534 -0.9882 0.9882 0.1534 -125.5069 297.4499)" style="fill:#E8A205;" width="2.351" height="6.636"/>
					</g>
					<g>
						
							<rect x="108.454" y="226.396" transform="matrix(0.1534 -0.9882 0.9882 0.1534 -134.1841 302.8008)" style="fill:#E8A205;" width="2.351" height="6.636"/>
					</g>
				</g>
			</g>
			<g>
				<g>
					<g>
						
							<rect x="104.442" y="230.861" transform="matrix(0.1534 -0.9882 0.9882 0.1534 -144.8026 305.0276)" style="fill:#E8A205;" width="2.352" height="12.324"/>
					</g>
					<g>
						
							<rect x="106.049" y="241.887" transform="matrix(0.1535 -0.9881 0.9881 0.1535 -151.5327 313.5195)" style="fill:#E8A205;" width="2.352" height="6.636"/>
					</g>
					<g>
						
							<rect x="104.847" y="249.632" transform="matrix(0.1532 -0.9882 0.9882 0.1532 -160.1837 318.9702)" style="fill:#E8A205;" width="2.352" height="6.636"/>
					</g>
					<g>
						
							<rect x="103.645" y="257.378" transform="matrix(0.1535 -0.9882 0.9882 0.1535 -168.8746 324.2606)" style="fill:#E8A205;" width="2.351" height="6.636"/>
					</g>
				</g>
				<g>
					<g>
						
							<rect x="99.632" y="261.843" transform="matrix(0.1534 -0.9882 0.9882 0.1534 -179.4897 326.5062)" style="fill:#E8A205;" width="2.351" height="12.324"/>
					</g>
					<g>
						
							<rect x="101.24" y="272.869" transform="matrix(0.1534 -0.9882 0.9882 0.1534 -186.2096 335.0369)" style="fill:#E8A205;" width="2.352" height="6.636"/>
					</g>
					<g>
						
							<rect x="100.037" y="280.615" transform="matrix(0.1534 -0.9882 0.9882 0.1534 -194.8822 340.4063)" style="fill:#E8A205;" width="2.352" height="6.636"/>
					</g>
					<g>
						
							<rect x="98.835" y="288.36" transform="matrix(0.1535 -0.9882 0.9882 0.1535 -203.5604 345.7355)" style="fill:#E8A205;" width="2.352" height="6.636"/>
					</g>
				</g>
			</g>
			<g>
				<g>
					<g>
						
							<rect x="94.823" y="292.825" transform="matrix(0.1534 -0.9882 0.9882 0.1534 -214.1767 347.9781)" style="fill:#E8A205;" width="2.351" height="12.324"/>
					</g>
					<g>
						
							<rect x="96.431" y="303.851" transform="matrix(0.1535 -0.9882 0.9882 0.1535 -220.9038 356.472)" style="fill:#E8A205;" width="2.352" height="6.636"/>
					</g>
					<g>
						
							<rect x="95.228" y="311.596" transform="matrix(0.1533 -0.9882 0.9882 0.1533 -229.5683 361.8881)" style="fill:#E8A205;" width="2.352" height="6.636"/>
					</g>
					<g>
						
							<rect x="94.026" y="319.342" transform="matrix(0.1532 -0.9882 0.9882 0.1532 -238.2344 367.3039)" style="fill:#E8A205;" width="2.352" height="6.636"/>
					</g>
				</g>
				<g>
					<g>
						
							<rect x="90.014" y="323.807" transform="matrix(0.1534 -0.9882 0.9882 0.1534 -248.8635 369.4568)" style="fill:#E8A205;" width="2.351" height="12.324"/>
					</g>
					<g>
						
							<rect x="91.622" y="334.833" transform="matrix(0.1535 -0.9881 0.9881 0.1535 -255.5911 377.9418)" style="fill:#E8A205;" width="2.351" height="6.636"/>
					</g>
					<g>
						
							<rect x="90.419" y="342.578" transform="matrix(0.1535 -0.9882 0.9882 0.1535 -264.2614 383.3147)" style="fill:#E8A205;" width="2.352" height="6.636"/>
					</g>
					<g>
						
							<rect x="89.216" y="350.324" transform="matrix(0.1534 -0.9882 0.9882 0.1534 -272.9281 388.7322)" style="fill:#E8A205;" width="2.352" height="6.636"/>
					</g>
				</g>
			</g>
		</g>
	</g>
	<path style="fill:#ED664C;" d="M149.609,327.724l-5.055,1.075c-0.507-1.917-1.261-3.73-2.236-5.405l4.333-2.811
		c1.449-0.94,1.635-2.709,0.415-3.93l-5.965-5.966c-1.221-1.22-2.99-1.034-3.93,0.416l-2.811,4.331
		c-1.675-0.975-3.488-1.729-5.406-2.235l1.076-5.055c0.36-1.688-0.759-3.07-2.486-3.07h-8.435c-1.727,0-2.846,1.382-2.486,3.07
		l1.077,5.055c-1.918,0.507-3.731,1.261-5.407,2.235l-2.811-4.331c-0.939-1.45-2.709-1.636-3.929-0.416l-5.965,5.966
		c-1.221,1.221-1.035,2.989,0.414,3.93l4.333,2.811c-0.975,1.675-1.729,3.488-2.236,5.405l-5.055-1.075
		c-1.689-0.359-3.071,0.759-3.071,2.486v8.433c0,1.727,1.382,2.846,3.071,2.487l5.055-1.076c0.507,1.917,1.261,3.73,2.236,5.405
		l-4.333,2.81c-1.449,0.941-1.635,2.709-0.414,3.931l5.965,5.965c1.221,1.221,2.99,1.034,3.929-0.414l2.811-4.333
		c1.675,0.975,3.488,1.729,5.407,2.235l-1.077,5.055c-0.36,1.689,0.759,3.071,2.486,3.071h8.435c1.727,0,2.846-1.382,2.486-3.071
		l-1.076-5.055c1.918-0.507,3.731-1.261,5.406-2.235l2.811,4.333c0.94,1.448,2.708,1.635,3.93,0.414l5.965-5.965
		c1.22-1.222,1.035-2.989-0.415-3.931l-4.333-2.81c0.975-1.675,1.729-3.488,2.236-5.405l5.055,1.076
		c1.689,0.358,3.071-0.76,3.071-2.487v-8.433C152.68,328.482,151.298,327.364,149.609,327.724z M123.327,346.741
		c-6.801,0-12.315-5.514-12.315-12.314c0-6.802,5.514-12.314,12.315-12.314c6.801,0,12.315,5.513,12.315,12.314
		C135.642,341.228,130.128,346.741,123.327,346.741z"/>
	<g>
		<path style="fill:#ED664C;" d="M256.909,188.933c-21.054,0-38.121,17.067-38.121,38.121c0,21.053,17.067,38.121,38.121,38.121
			c21.053,0,38.12-17.067,38.12-38.121C295.029,205.999,277.962,188.933,256.909,188.933z M256.909,257.835
			c-17,0-30.781-13.782-30.781-30.782c0-17.001,13.781-30.781,30.781-30.781s30.78,13.781,30.78,30.781
			C287.689,244.053,273.909,257.835,256.909,257.835z"/>
		<path style="opacity:0.7;fill:#DAEBFF;" d="M256.909,257.835c-17,0-30.781-13.782-30.781-30.782
			c0-17.001,13.781-30.781,30.781-30.781s30.78,13.781,30.78,30.781C287.689,244.053,273.909,257.835,256.909,257.835z"/>
		<g>
			<path style="fill:#FFFFFF;" d="M239.155,228.639c0.248-10.737,8.604-19.092,19.34-19.34c5.103-0.118,5.113-8.046,0-7.927
				c-15.095,0.349-26.919,12.173-27.268,27.268C231.109,233.754,239.036,233.742,239.155,228.639L239.155,228.639z"/>
		</g>
		
			<rect x="203.209" y="261.877" transform="matrix(0.7071 -0.7071 0.7071 0.7071 -123.8948 234.768)" style="fill:#ED664C;" width="36.466" height="10.123"/>
	</g>
	<g>
		<g>
			<g>
				<g>
					<rect x="385.428" y="348.212" style="fill:#8FBAF9;" width="42.977" height="14.293"/>
					<g>
						<rect x="392.695" y="108.446" style="fill:#BBD5EF;" width="28.439" height="239.766"/>
						<rect x="392.695" y="108.446" style="fill:#8FBAF9;" width="3.002" height="239.766"/>
						<rect x="418.133" y="108.446" style="fill:#8FBAF9;" width="3.002" height="239.766"/>
						<path style="fill:#8FBAF9;" d="M419.837,347.189c-7.516-3.658-15.03-7.316-22.546-10.974
							c7.516-3.658,15.03-7.315,22.546-10.975c0.774-0.377,0.774-1.669,0-2.046c-7.516-3.655-15.029-7.311-22.545-10.966
							c7.516-3.657,15.029-7.313,22.545-10.97c0.774-0.377,0.774-1.67,0-2.046c-7.516-3.656-15.028-7.311-22.544-10.966
							c7.516-3.654,15.028-7.308,22.544-10.963c0.774-0.376,0.774-1.67,0-2.046c-7.516-3.656-15.029-7.311-22.544-10.966
							c7.515-3.656,15.028-7.311,22.544-10.967c0.774-0.376,0.774-1.67,0-2.046c-7.516-3.655-15.029-7.31-22.544-10.964
							c7.515-3.656,15.028-7.311,22.544-10.967c0.774-0.376,0.774-1.669,0-2.046c-7.515-3.655-15.028-7.31-22.543-10.965
							c7.515-3.654,15.028-7.309,22.543-10.963c0.774-0.377,0.774-1.67,0-2.047c-7.516-3.654-15.028-7.309-22.544-10.963
							c7.516-3.655,15.028-7.31,22.544-10.965c0.774-0.376,0.774-1.67,0-2.047c-7.515-3.654-15.028-7.308-22.543-10.963
							c7.515-3.652,15.028-7.306,22.543-10.959c0.774-0.377,0.774-1.67,0-2.047c-7.515-3.654-15.028-7.308-22.542-10.962
							c7.514-3.653,15.027-7.306,22.542-10.96c0.774-0.376,0.774-1.67,0-2.046c-7.516-3.654-15.028-7.309-22.544-10.963
							c7.516-3.654,15.028-7.309,22.544-10.963c1.374-0.668,0.172-2.712-1.196-2.046c-8.216,3.996-16.431,7.991-24.647,11.987
							c-0.773,0.376-0.773,1.669,0,2.046c7.515,3.654,15.029,7.309,22.544,10.963c-7.515,3.653-15.029,7.306-22.544,10.959
							c-0.773,0.377-0.773,1.67,0,2.047c7.515,3.654,15.028,7.308,22.543,10.962c-7.515,3.653-15.028,7.306-22.543,10.959
							c-0.773,0.376-0.773,1.67,0,2.046c7.515,3.655,15.029,7.309,22.544,10.963c-7.515,3.656-15.029,7.31-22.544,10.965
							c-0.773,0.376-0.773,1.67,0,2.046c7.515,3.655,15.029,7.309,22.544,10.963c-7.515,3.655-15.029,7.309-22.544,10.963
							c-0.773,0.377-0.773,1.67,0,2.047c7.516,3.655,15.03,7.31,22.544,10.965c-7.514,3.655-15.028,7.311-22.544,10.967
							c-0.773,0.376-0.773,1.669,0,2.046c7.516,3.655,15.03,7.309,22.544,10.965c-7.514,3.655-15.028,7.311-22.544,10.967
							c-0.773,0.375-0.773,1.67,0,2.046c7.516,3.655,15.029,7.311,22.544,10.965c-7.515,3.654-15.028,7.309-22.544,10.963
							c-0.773,0.376-0.773,1.671,0,2.046c7.516,3.656,15.03,7.312,22.545,10.966c-7.515,3.657-15.029,7.313-22.545,10.97
							c-0.773,0.377-0.773,1.67,0,2.046c7.516,3.656,15.03,7.311,22.545,10.967c-7.515,3.657-15.029,7.315-22.545,10.974
							c-0.773,0.377-0.773,1.669,0,2.046c8.217,4,16.432,7.999,24.647,11.997C420.009,349.901,421.211,347.857,419.837,347.189z"/>
					</g>
				</g>
				<g>
					<rect x="392.695" y="101.469" style="fill:#5177C4;" width="28.439" height="18.327"/>
					<rect x="330.578" y="101.469" style="fill:#BBD5EF;" width="127.03" height="18.327"/>
					<rect x="330.578" y="116.794" style="fill:#8FBAF9;" width="127.03" height="3.003"/>
					<rect x="330.578" y="101.469" style="fill:#8FBAF9;" width="127.03" height="3.002"/>
					<rect x="330.578" y="101.469" style="fill:#8FBAF9;" width="7.827" height="18.327"/>
					<rect x="449.782" y="101.469" style="fill:#8FBAF9;" width="7.826" height="18.327"/>
					<rect x="392.695" y="86.301" style="fill:#8FBAF9;" width="28.439" height="33.496"/>
					<g>
						<path style="fill:#8FBAF9;" d="M333.654,103.887c4.414,5.056,8.827,10.112,13.241,15.167c0.404,0.463,1.271,0.463,1.675,0
							c4.414-5.056,8.829-10.111,13.243-15.167c-0.558,0-1.117,0-1.675,0c4.414,5.056,8.828,10.112,13.243,15.167
							c0.405,0.463,1.271,0.463,1.676,0c4.415-5.056,8.83-10.111,13.245-15.167c-0.559,0-1.117,0-1.676,0
							c4.414,5.056,8.827,10.112,13.241,15.167c0.404,0.464,1.271,0.463,1.676,0c4.415-5.056,8.831-10.111,13.246-15.167
							c-0.559,0-1.118,0-1.676,0c4.414,5.056,8.827,10.112,13.241,15.167c0.404,0.464,1.271,0.463,1.676,0
							c4.416-5.056,8.834-10.111,13.251-15.167c-0.559,0-1.117,0-1.676,0c4.417,5.056,8.834,10.112,13.251,15.167
							c1.007,1.153,2.676-0.53,1.676-1.675c-4.417-5.056-8.834-10.112-13.251-15.168c-0.404-0.463-1.271-0.463-1.676,0
							c-4.417,5.056-8.834,10.112-13.251,15.168c0.558,0,1.117,0,1.676,0c-4.414-5.056-8.827-10.112-13.241-15.168
							c-0.405-0.464-1.271-0.463-1.676,0c-4.415,5.056-8.831,10.112-13.246,15.168c0.559,0,1.117,0,1.676,0
							c-4.414-5.056-8.827-10.112-13.241-15.168c-0.404-0.463-1.271-0.463-1.676,0c-4.415,5.056-8.83,10.112-13.245,15.168
							c0.559,0,1.118,0,1.676,0c-4.415-5.056-8.829-10.112-13.244-15.168c-0.404-0.463-1.27-0.463-1.675,0
							c-4.414,5.056-8.829,10.112-13.243,15.168c0.558,0,1.117,0,1.675,0c-4.414-5.056-8.827-10.112-13.241-15.168
							C334.322,101.058,332.653,102.741,333.654,103.887L333.654,103.887z"/>
					</g>
				</g>
			</g>
			<g>
				<path style="fill:#F49E87;" d="M347.288,230.339c-4.131-6.342-8.261-12.683-12.391-19.024c-0.406-0.624,0.536-1.215,0.938-0.598
					c4.13,6.341,8.26,12.682,12.391,19.024C348.633,230.365,347.689,230.956,347.288,230.339L347.288,230.339z"/>
			</g>
			<g>
				<g>
					<path style="fill:#8FBAF9;" d="M333.307,110.633c0,26.965,0,53.93,0,80.895c0,1.528,2.37,1.528,2.37,0
						c0-26.965,0-53.93,0-80.895C335.677,109.104,333.307,109.104,333.307,110.633L333.307,110.633z"/>
				</g>
				<g>
					<path style="fill:#8FBAF9;" d="M339.761,192.251c0,2.999-2.43,5.43-5.429,5.43c-2.999,0-5.429-2.431-5.429-5.43
						c0-2.999,2.43-5.43,5.429-5.43C337.331,186.82,339.761,189.251,339.761,192.251z"/>
					<path style="fill:#8FBAF9;" d="M339.758,203.777c-0.796-1.816-2.434-3.122-4.414-3.535v-6.581c0-1.29-2.009-1.29-2.009,0
						l0.001,7.296c-0.012,0.116-0.006,0.23,0.015,0.324c0.027,0.181,0.102,0.34,0.256,0.515l0.05,0.049
						c0.171,0.161,0.391,0.253,0.635,0.266c1.49,0.08,2.744,0.825,3.44,2.044c0.693,1.211,0.698,2.661,0.016,3.978
						c-0.647,1.249-1.764,1.935-3.146,1.935c-1.661,0.001-3.271-0.993-4.006-2.472c-0.165-0.335-0.461-0.526-0.812-0.526
						c-0.353,0-0.708,0.203-0.902,0.517c-0.188,0.301-0.201,0.66-0.041,0.984c1.057,2.128,3.297,3.502,5.71,3.502c0,0,0,0,0.001,0
						c1.911,0,3.604-0.91,4.646-2.497C340.381,207.776,340.583,205.663,339.758,203.777z"/>
				</g>
				<g>
					<path style="fill:#F49E87;" d="M321.505,229.391c4.13-6.341,8.261-12.683,12.391-19.024c0.406-0.624-0.536-1.215-0.938-0.598
						c-4.13,6.341-8.261,12.683-12.391,19.024C320.16,229.417,321.103,230.008,321.505,229.391L321.505,229.391z"/>
				</g>
			</g>
		</g>
		<g>
			<path style="fill:#8FBAF9;" d="M334.81,104.192c19.9-4.819,39.802-9.638,59.702-14.457c1.485-0.359,0.855-2.645-0.63-2.286
				c-19.9,4.819-39.802,9.638-59.702,14.457C332.695,102.266,333.324,104.551,334.81,104.192L334.81,104.192z"/>
		</g>
		<g>
			<path style="fill:#8FBAF9;" d="M456.103,101.906c-12.235-4.818-24.472-9.638-36.708-14.457c-1.424-0.561-2.035,1.732-0.63,2.286
				c12.236,4.819,24.472,9.638,36.709,14.457C456.898,104.752,457.509,102.46,456.103,101.906L456.103,101.906z"/>
		</g>
	</g>
	<g>
		<g>
			<rect x="292.558" y="103.302" style="fill:#F9C83E;" width="14.346" height="81.715"/>
			<polygon style="fill:#77A9F2;" points="292.558,185.017 299.73,197.323 306.903,185.017 			"/>
			<polygon style="fill:#3A5799;" points="303.977,190.036 295.482,190.036 299.73,197.323 			"/>
			<g>
				<g>
					<path style="fill:#F49E87;" d="M296.226,107.254c0,24.76,0,49.519,0,74.278c0,0.904,1.401,0.904,1.401,0
						c0-24.759,0-49.518,0-74.278C297.627,106.351,296.226,106.351,296.226,107.254L296.226,107.254z"/>
				</g>
				<g>
					<path style="fill:#F49E87;" d="M301.832,107.254c0,24.76,0,49.519,0,74.278c0,0.904,1.401,0.904,1.401,0
						c0-24.759,0-49.518,0-74.278C303.233,106.351,301.832,106.351,301.832,107.254L301.832,107.254z"/>
				</g>
			</g>
		</g>
		<rect x="292.558" y="96.836" style="fill:#3A5799;" width="14.346" height="6.466"/>
	</g>
	<g>
		<g>
			<g>
				<path style="fill:#F9C83E;" d="M180.469,123.612c0,12.491-10.125,22.618-22.617,22.618c-12.491,0-22.618-10.126-22.618-22.618
					c0-12.492,10.127-22.619,22.618-22.619C170.344,100.994,180.469,111.12,180.469,123.612z"/>
				<rect x="148.47" y="140.717" style="fill:#F9C83E;" width="18.765" height="10.178"/>
				<rect x="148.47" y="150.895" style="fill:#3A5799;" width="18.765" height="7.521"/>
			</g>
			<g>
				<path style="fill:#FFFFFF;" d="M147.555,120.755c5.331,8.364,9.033,18.499,9.237,28.444c0.028,1.396,1.976,1.331,2.121,0
					c1.044-9.612,3.319-20.618,9.237-28.444c0.826-1.092-1.017-2.146-1.83-1.07c-6.16,8.146-8.444,19.537-9.527,29.514
					c0.707,0,1.413,0,2.121,0c-0.212-10.311-3.998-20.839-9.527-29.514C148.653,118.536,146.817,119.599,147.555,120.755
					L147.555,120.755z"/>
			</g>
			<g>
				<path style="fill:#FFFFFF;" d="M144.202,128.454c8.984,0,17.968,0,26.953,0c1.368,0,1.368-2.12,0-2.12
					c-8.984,0-17.969,0-26.953,0C142.835,126.334,142.835,128.454,144.202,128.454L144.202,128.454z"/>
			</g>
		</g>
		<g>
			<g>
				<rect x="156.904" y="79.498" style="fill:#E8A205;" width="1.896" height="13.852"/>
			</g>
			<g>
				<g>
					
						<rect x="169.885" y="90.903" transform="matrix(0.6212 -0.7837 0.7837 0.6212 -5.0009 173.3571)" style="fill:#E8A205;" width="13.852" height="1.896"/>
				</g>
				<g>
					
						<rect x="137.944" y="84.925" transform="matrix(0.7836 -0.6212 0.6212 0.7836 -27.0083 106.1587)" style="fill:#E8A205;" width="1.896" height="13.853"/>
				</g>
			</g>
		</g>
	</g>
	<g>
		<g>
			<g>
				<g>
					<g>
						
							<rect x="358.977" y="283.146" transform="matrix(0.5276 -0.8495 0.8495 0.5276 -103.859 468.6437)" style="fill:#F5F7F6;" width="20.971" height="89.126"/>
						<g>
							
								<rect x="387.553" y="341.819" transform="matrix(0.5275 -0.8495 0.8495 0.5275 -105.4168 501.3768)" style="fill:#25D898;" width="20.97" height="7.281"/>
							
								<rect x="377.903" y="335.825" transform="matrix(0.5277 -0.8494 0.8494 0.5277 -104.9193 490.2321)" style="fill:#45DDAB;" width="20.971" height="7.282"/>
							
								<rect x="368.253" y="329.831" transform="matrix(0.5279 -0.8493 0.8493 0.5279 -104.422 479.0815)" style="fill:#6DE8BF;" width="20.971" height="7.281"/>
							
								<rect x="358.605" y="323.838" transform="matrix(0.5276 -0.8495 0.8495 0.5276 -103.8384 468.2208)" style="fill:#80DDBE;" width="20.97" height="7.282"/>
							
								<rect x="348.956" y="317.845" transform="matrix(0.5275 -0.8496 0.8496 0.5275 -103.2846 457.2631)" style="fill:#93DBC5;" width="20.97" height="7.281"/>
							
								<rect x="339.307" y="311.852" transform="matrix(0.5277 -0.8495 0.8495 0.5277 -102.7775 446.1477)" style="fill:#A3E5CF;" width="20.971" height="7.281"/>
							
								<rect x="329.658" y="305.858" transform="matrix(0.5279 -0.8493 0.8493 0.5279 -102.281 434.9871)" style="fill:#BDEFDE;" width="20.971" height="7.281"/>
						</g>
					</g>
					<g>
						
							<rect x="357.381" y="289.15" transform="matrix(0.4056 -0.9141 0.9141 0.4056 -86.3631 534.6239)" style="fill:#FFFFFF;" width="20.971" height="89.126"/>
						<g>
							
								<rect x="388.131" y="343.716" transform="matrix(0.4056 -0.914 0.914 0.4056 -80.573 570.804)" style="fill:#F9C83E;" width="20.971" height="7.281"/>
							
								<rect x="377.748" y="339.108" transform="matrix(0.4056 -0.9141 0.9141 0.4056 -82.524 558.5959)" style="fill:#F7CC61;" width="20.969" height="7.282"/>
							
								<rect x="367.364" y="334.502" transform="matrix(0.4056 -0.914 0.914 0.4056 -84.4872 546.364)" style="fill:#F4CD6C;" width="20.972" height="7.283"/>
							
								<rect x="356.981" y="329.895" transform="matrix(0.4054 -0.9141 0.9141 0.4054 -86.4092 534.2205)" style="fill:#F9D885;" width="20.972" height="7.281"/>
							
								<rect x="346.598" y="325.288" transform="matrix(0.4058 -0.914 0.914 0.4058 -88.4398 521.8334)" style="fill:#F9DD95;" width="20.97" height="7.282"/>
							
								<rect x="336.215" y="320.681" transform="matrix(0.4056 -0.914 0.914 0.4056 -90.3753 509.6609)" style="fill:#F7E0AD;" width="20.971" height="7.281"/>
							
								<rect x="325.832" y="316.075" transform="matrix(0.4057 -0.914 0.914 0.4057 -92.3481 497.4023)" style="fill:#F9EBCF;" width="20.97" height="7.281"/>
						</g>
					</g>
					<g>
						
							<rect x="356.425" y="297.826" transform="matrix(0.2327 -0.9725 0.9725 0.2327 -51.4616 619.55)" style="fill:#F5F7F6;" width="20.971" height="89.126"/>
						
							<rect x="389.142" y="346.576" transform="matrix(0.2327 -0.9726 0.9726 0.2327 -33.9607 657.3907)" style="fill:#F49E87;" width="20.972" height="7.282"/>
						
							<rect x="378.095" y="343.932" transform="matrix(0.2327 -0.9725 0.9725 0.2327 -39.8882 644.5865)" style="fill:#F4AD9F;" width="20.97" height="7.282"/>
						
							<rect x="367.047" y="341.289" transform="matrix(0.2326 -0.9726 0.9726 0.2326 -45.7639 631.8578)" style="fill:#F7BAAD;" width="20.971" height="7.282"/>
						
							<rect x="356" y="338.647" transform="matrix(0.2326 -0.9726 0.9726 0.2326 -51.6631 619.0973)" style="fill:#F7C5BC;" width="20.97" height="7.281"/>
						
							<rect x="344.953" y="336.003" transform="matrix(0.2326 -0.9726 0.9726 0.2326 -57.5604 606.3385)" style="fill:#F9D2CD;" width="20.972" height="7.281"/>
						
							<rect x="333.904" y="333.359" transform="matrix(0.2328 -0.9725 0.9725 0.2328 -63.526 593.4723)" style="fill:#FCE0DE;" width="20.972" height="7.282"/>
						
							<rect x="322.858" y="330.717" transform="matrix(0.2327 -0.9726 0.9726 0.2327 -69.3977 580.756)" style="fill:#F7DFDA;" width="20.971" height="7.282"/>
					</g>
				</g>
				<path style="fill:#FFFFFF;" d="M317.425,354.946c0,4.61,3.771,8.381,8.38,8.381h82.609c4.611,0,8.382-3.77,8.382-8.381v-5.586
					c0-4.608-3.771-8.38-8.382-8.38h-82.609c-4.608,0-8.38,3.772-8.38,8.38V354.946z"/>
			</g>
			<path style="fill:#3A5799;" d="M408.501,346.559c0,1.085,0.878,1.962,1.961,1.962c1.086,0,1.964-0.877,1.964-1.962
				c0-1.084-0.878-1.962-1.964-1.962C409.379,344.597,408.501,345.475,408.501,346.559z"/>
		</g>
		<path style="fill:#3A5799;" d="M403.81,346.826c0,0.967-0.783,1.75-1.75,1.75h-39.845c-0.968,0-1.751-0.783-1.751-1.75l0,0
			c0-0.967,0.783-1.75,1.751-1.75h39.845C403.027,345.076,403.81,345.859,403.81,346.826L403.81,346.826z"/>
		<path style="fill:#77A9F2;" d="M403.81,353.463c0,0.966-0.783,1.749-1.75,1.749h-20.886c-0.967,0-1.75-0.783-1.75-1.749l0,0
			c0-0.968,0.783-1.751,1.75-1.751h20.886C403.027,351.712,403.81,352.495,403.81,353.463L403.81,353.463z"/>
	</g>
	<rect x="106" y="388" style="fill:none;" width="289" height="55"/>
	<text transform="matrix(1 0 0 1 114.1646 397.1914)"><tspan x="0" y="0" style="fill:#6D8199; font-family:'Dosis-Light'; font-size:12px;">Lorem ipsum dolor sit amet, consectetur adipiscing elit. Etiam </tspan><tspan x="-2.106" y="17" style="fill:#6D8199; font-family:'Dosis-Light'; font-size:12px;">rhoncus, ex id dapibus finibus, diam urna congue elit, at ulla</tspan><tspan x="270.018" y="17" style="fill:#6D8199; font-family:'Dosis-Light'; font-size:12px;">-</tspan><tspan x="80.176" y="34" style="fill:#6D8199; font-family:'Dosis-Light'; font-size:12px;">corper risus felis nec orci.</tspan></text>
	<text transform="matrix(1 0 0 1 115.1812 49.5566)" style="fill:#3A5799; font-family:'Quicksand-Bold'; font-size:22.9443px;">WEB DESIGN CONCEPT</text>
</g>
</svg>
